<?xml version="1.0" encoding="UTF-8"?>
<svg version="1.1" xmlns="http://www.w3.org/2000/svg" width="626" height="417">
<path d="M0 0 C206.58 0 413.16 0 626 0 C626 137.61 626 275.22 626 417 C419.42 417 212.84 417 0 417 C0 279.39 0 141.78 0 0 Z " fill="#D9F4E0" transform="translate(0,0)"/>
<path d="M0 0 C0.33 0 0.66 0 1 0 C1 2.64 1 5.28 1 8 C4.465 7.505 4.465 7.505 8 7 C8.33 5.68 8.66 4.36 9 3 C9.495 4.485 9.495 4.485 10 6 C10.763125 5.773125 11.52625 5.54625 12.3125 5.3125 C13.199375 5.209375 14.08625 5.10625 15 5 C16.6875 6.4375 16.6875 6.4375 18 8 C18.66 8 19.32 8 20 8 C20.33 6.68 20.66 5.36 21 4 C21 5.32 21 6.64 21 8 C21.99 8 22.98 8 24 8 C24 6.35 24 4.7 24 3 C25.98 3.495 25.98 3.495 28 4 C28.33 3.34 28.66 2.68 29 2 C30.65 2.33 32.3 2.66 34 3 C34.33 4.65 34.66 6.3 35 8 C35.33 7.34 35.66 6.68 36 6 C36.66 6 37.32 6 38 6 C38 6.66 38 7.32 38 8 C38.66 8 39.32 8 40 8 C40.33 7.34 40.66 6.68 41 6 C41 6.66 41 7.32 41 8 C41.66 8 42.32 8 43 8 C43.33 7.01 43.66 6.02 44 5 C44.33 5.99 44.66 6.98 45 8 C45.99 7.34 46.98 6.68 48 6 C48 7.32 48 8.64 48 10 C48.99 10 49.98 10 51 10 C51 8.35 51 6.7 51 5 C51.99 5.495 51.99 5.495 53 6 C53 7.32 53 8.64 53 10 C53.66 10 54.32 10 55 10 C55 8.02 55 6.04 55 4 C57 4 57 4 58.625 5.5 C59.07875 5.995 59.5325 6.49 60 7 C60 6.34 60 5.68 60 5 C60.99 5 61.98 5 63 5 C63 4.34 63 3.68 63 3 C63.66 3 64.32 3 65 3 C65.99 4.485 65.99 4.485 67 6 C67.33 5.01 67.66 4.02 68 3 C68.66 3 69.32 3 70 3 C70 4.32 70 5.64 70 7 C70.66 7 71.32 7 72 7 C72.33 6.34 72.66 5.68 73 5 C73 6.65 73 8.3 73 10 C73.66 10 74.32 10 75 10 C75 7.69 75 5.38 75 3 C75.33 3 75.66 3 76 3 C76 4.65 76 6.3 76 8 C76.66 8 77.32 8 78 8 C78.33 7.01 78.66 6.02 79 5 C79.33 4.34 79.66 3.68 80 3 C80.66 3 81.32 3 82 3 C82 4.65 82 6.3 82 8 C82.66 8 83.32 8 84 8 C84 8.66 84 9.32 84 10 C84.66 10 85.32 10 86 10 C86.0825 9.38125 86.165 8.7625 86.25 8.125 C87 6 87 6 88.9375 4.75 C91 4 91 4 93 4 C93.66 3.67 94.32 3.34 95 3 C95 5.31 95 7.62 95 10 C97.7839183 8.60804085 97.97898997 6.84424221 99 4 C99.33 5.32 99.66 6.64 100 8 C100.66 8 101.32 8 102 8 C102.33 7.01 102.66 6.02 103 5 C104.98 6.98 104.98 6.98 107 9 C107.99 7.02 108.98 5.04 110 3 C110.433125 3.9590625 110.433125 3.9590625 110.875 4.9375 C111.82823451 7.15206079 111.82823451 7.15206079 114 8 C114.66 6.68 115.32 5.36 116 4 C116.66 4 117.32 4 118 4 C118 5.32 118 6.64 118 8 C118.66 8 119.32 8 120 8 C120 8.66 120 9.32 120 10 C120.66 10 121.32 10 122 10 C122 8.02 122 6.04 122 4 C122.66 4 123.32 4 124 4 C124 5.32 124 6.64 124 8 C124.66 8 125.32 8 126 8 C126 6.68 126 5.36 126 4 C126.66 4 127.32 4 128 4 C128 4.66 128 5.32 128 6 C128.66 6 129.32 6 130 6 C130.33 5.34 130.66 4.68 131 4 C131 5.65 131 7.3 131 9 C131.66 9 132.32 9 133 9 C133.33 7.68 133.66 6.36 134 5 C134.33 5.66 134.66 6.32 135 7 C135.99 7.33 136.98 7.66 138 8 C138.33 6.68 138.66 5.36 139 4 C140.32 3.67 141.64 3.34 143 3 C143 4.32 143 5.64 143 7 C143.66 7 144.32 7 145 7 C145.33 6.34 145.66 5.68 146 5 C146 6.65 146 8.3 146 10 C146.61875 9.814375 147.2375 9.62875 147.875 9.4375 C150 9 150 9 152 10 C152.33 8.68 152.66 7.36 153 6 C153.61875 6.20625 154.2375 6.4125 154.875 6.625 C155.57625 6.74875 156.2775 6.8725 157 7 C157.66 6.34 158.32 5.68 159 5 C159 5.99 159 6.98 159 8 C159.66 8 160.32 8 161 8 C161.33 7.01 161.66 6.02 162 5 C162.33 5 162.66 5 163 5 C163 6.65 163 8.3 163 10 C163.66 10 164.32 10 165 10 C165 8.68 165 7.36 165 6 C165.99 6 166.98 6 168 6 C168.33 5.01 168.66 4.02 169 3 C169.33 4.65 169.66 6.3 170 8 C170.66 8 171.32 8 172 8 C172 7.34 172 6.68 172 6 C173.98 6.495 173.98 6.495 176 7 C176 6.34 176 5.68 176 5 C177.98 4.67 179.96 4.34 182 4 C182.33 5.32 182.66 6.64 183 8 C184.485 7.505 184.485 7.505 186 7 C186.99 7 187.98 7 189 7 C189.33 6.01 189.66 5.02 190 4 C190.66 4 191.32 4 192 4 C192 5.98 192 7.96 192 10 C193.485 9.505 193.485 9.505 195 9 C196.21869929 6.49552484 196.21869929 6.49552484 197 4 C199 7 199 7 199 9 C199.66 9 200.32 9 201 9 C201 7.68 201 6.36 201 5 C201.66 5 202.32 5 203 5 C203.33 5.66 203.66 6.32 204 7 C205.485 5.02 205.485 5.02 207 3 C207.66 3.99 208.32 4.98 209 6 C209.66 5.34 210.32 4.68 211 4 C211.66 4.33 212.32 4.66 213 5 C213 6.65 213 8.3 213 10 C213.66 10 214.32 10 215 10 C215.33 7.69 215.66 5.38 216 3 C217.98 3.495 217.98 3.495 220 4 C220 4.99 220 5.98 220 7 C220.66 7 221.32 7 222 7 C222.33 5.68 222.66 4.36 223 3 C223.33 3 223.66 3 224 3 C224 4.65 224 6.3 224 8 C225.32 8 226.64 8 228 8 C228.66 6.35 229.32 4.7 230 3 C230.33 3 230.66 3 231 3 C231.12375 3.804375 231.2475 4.60875 231.375 5.4375 C231.58125 6.283125 231.7875 7.12875 232 8 C232.66 8.33 233.32 8.66 234 9 C234.144375 8.38125 234.28875 7.7625 234.4375 7.125 C235 5 235 5 236 3 C236.66 3 237.32 3 238 3 C238 3.99 238 4.98 238 6 C238.66 6 239.32 6 240 6 C240 6.66 240 7.32 240 8 C240.66 8 241.32 8 242 8 C242.33 7.01 242.66 6.02 243 5 C243.33 5.99 243.66 6.98 244 8 C244.99 8.33 245.98 8.66 247 9 C247 7.02 247 5.04 247 3 C249.66666667 3 252.33333333 3 255 3 C255 3.66 255 4.32 255 5 C255.99 5 256.98 5 258 5 C258.33 4.01 258.66 3.02 259 2 C259 4.64 259 7.28 259 10 C259.66 10 260.32 10 261 10 C261 7.69 261 5.38 261 3 C262.32 3 263.64 3 265 3 C265.433125 4.2065625 265.433125 4.2065625 265.875 5.4375 C266.73262568 8.1326468 266.73262568 8.1326468 269 9 C269.33 8.01 269.66 7.02 270 6 C271.5625 4.3125 271.5625 4.3125 273 3 C274 4 274 4 274.0625 6.5625 C274.041875 7.366875 274.02125 8.17125 274 9 C275.485 8.505 275.485 8.505 277 8 C277.73323796 5.98491642 277.73323796 5.98491642 278 4 C278.66 4 279.32 4 280 4 C280.33 5.32 280.66 6.64 281 8 C281.33 7.34 281.66 6.68 282 6 C285 7 285 7 286 9 C287.485 6.03 287.485 6.03 289 3 C289.33 3.66 289.66 4.32 290 5 C291.485 4.505 291.485 4.505 293 4 C295 7 295 7 295 10 C295.66 10 296.32 10 297 10 C297 7.69 297 5.38 297 3 C297.33 3 297.66 3 298 3 C298 4.65 298 6.3 298 8 C299.32 8 300.64 8 302 8 C302 8.66 302 9.32 302 10 C302.66 10 303.32 10 304 10 C304.33 7.69 304.66 5.38 305 3 C306.485 2.505 306.485 2.505 308 2 C308.33 4.31 308.66 6.62 309 9 C309.66 9 310.32 9 311 9 C311.12375 8.195625 311.2475 7.39125 311.375 6.5625 C311.684375 5.2940625 311.684375 5.2940625 312 4 C312.66 3.67 313.32 3.34 314 3 C314.66 3.99 315.32 4.98 316 6 C316.66 6 317.32 6 318 6 C318.7115625 5.2575 318.7115625 5.2575 319.4375 4.5 C321 3 321 3 324 3 C324.33 5.31 324.66 7.62 325 10 C327.7839183 8.60804085 327.97898997 6.84424221 329 4 C329.66 4 330.32 4 331 4 C331.433125 5.2065625 331.433125 5.2065625 331.875 6.4375 C332.73262568 9.1326468 332.73262568 9.1326468 335 10 C335.33 7.69 335.66 5.38 336 3 C336.66 3 337.32 3 338 3 C338.66 3.66 339.32 4.32 340 5 C341.98356483 5.71408334 343.98315437 6.38617742 346 7 C346.66 5.68 347.32 4.36 348 3 C348.66 4.65 349.32 6.3 350 8 C350.66 7.34 351.32 6.68 352 6 C352 6.99 352 7.98 352 9 C352.66 9 353.32 9 354 9 C354 7.35 354 5.7 354 4 C354.33 4 354.66 4 355 4 C355 5.65 355 7.3 355 9 C355.66 8.67 356.32 8.34 357 8 C357.65555119 5.47266765 357.65555119 5.47266765 358 3 C359.4606285 5.64738916 360 6.89448334 360 10 C360.66 10 361.32 10 362 10 C362 8.02 362 6.04 362 4 C362.66 5.32 363.32 6.64 364 8 C364.66 8 365.32 8 366 8 C366.33 7.34 366.66 6.68 367 6 C367 6.66 367 7.32 367 8 C368.485 7.505 368.485 7.505 370 7 C371.32 7 372.64 7 374 7 C374.33 7.99 374.66 8.98 375 10 C377.33075929 9.04134491 377.33075929 9.04134491 379 6 C379.66 6.33 380.32 6.66 381 7 C381 5.35 381 3.7 381 2 C381.66 2 382.32 2 383 2 C383 4.31 383 6.62 383 9 C384.485 8.505 384.485 8.505 386 8 C386 8.66 386 9.32 386 10 C387.32 9.67 388.64 9.34 390 9 C390 7.02 390 5.04 390 3 C390.33 3 390.66 3 391 3 C391 4.98 391 6.96 391 9 C391.66 9 392.32 9 393 9 C393.33 7.68 393.66 6.36 394 5 C394.99 5.33 395.98 5.66 397 6 C397 6.99 397 7.98 397 9 C398.32 9.33 399.64 9.66 401 10 C401.33 9.34 401.66 8.68 402 8 C402.99 8.66 403.98 9.32 405 10 C405 8.02 405 6.04 405 4 C405.66 3.67 406.32 3.34 407 3 C407.33 4.98 407.66 6.96 408 9 C408.66 7.68 409.32 6.36 410 5 C410 6.65 410 8.3 410 10 C412.51083114 8.74458443 412.87125446 7.49936512 414 5 C414.66 5.33 415.32 5.66 416 6 C416.33 5.34 416.66 4.68 417 4 C417.28875 4.639375 417.5775 5.27875 417.875 5.9375 C418.82823451 8.15206079 418.82823451 8.15206079 421 9 C421 7.35 421 5.7 421 4 C421.33 5.32 421.66 6.64 422 8 C422.66 8 423.32 8 424 8 C424.33 7.01 424.66 6.02 425 5 C426.485 4.01 426.485 4.01 428 3 C428.33 4.65 428.66 6.3 429 8 C430.65 7.34 432.3 6.68 434 6 C434 6.99 434 7.98 434 9 C434.66 9 435.32 9 436 9 C436 7.35 436 5.7 436 4 C436.33 5.32 436.66 6.64 437 8 C437.99 8 438.98 8 440 8 C440.33 7.34 440.66 6.68 441 6 C441 7.32 441 8.64 441 10 C441.66 10 442.32 10 443 10 C443 8.35 443 6.7 443 5 C443.66 5 444.32 5 445 5 C445 5.66 445 6.32 445 7 C445.66 7 446.32 7 447 7 C447.33 5.68 447.66 4.36 448 3 C448.33 3.99 448.66 4.98 449 6 C450.32 5.01 451.64 4.02 453 3 C453 4.65 453 6.3 453 8 C453.66 8 454.32 8 455 8 C455 7.01 455 6.02 455 5 C455.66 5 456.32 5 457 5 C457 6.65 457 8.3 457 10 C457.66 10 458.32 10 459 10 C459.33 9.34 459.66 8.68 460 8 C460 8.66 460 9.32 460 10 C460.66 10 461.32 10 462 10 C462 8.35 462 6.7 462 5 C463.32 5 464.64 5 466 5 C466.33 4.34 466.66 3.68 467 3 C467.66 3 468.32 3 469 3 C469.268125 3.969375 469.53625 4.93875 469.8125 5.9375 C470.204375 6.948125 470.59625 7.95875 471 9 C471.99 9.33 472.98 9.66 474 10 C474 8.35 474 6.7 474 5 C474.66 4.67 475.32 4.34 476 4 C476 5.65 476 7.3 476 9 C476.66 9 477.32 9 478 9 C478 7.02 478 5.04 478 3 C478.33 3 478.66 3 479 3 C479 4.65 479 6.3 479 8 C479.66 8 480.32 8 481 8 C481.66 6.35 482.32 4.7 483 3 C483.99 3.66 484.98 4.32 486 5 C486.66 4.01 487.32 3.02 488 2 C488.66 2 489.32 2 490 2 C490.33 4.31 490.66 6.62 491 9 C491.66 9 492.32 9 493 9 C493.103125 8.360625 493.20625 7.72125 493.3125 7.0625 C493.539375 6.381875 493.76625 5.70125 494 5 C495.485 4.505 495.485 4.505 497 4 C497 4.99 497 5.98 497 7 C498.485 6.505 498.485 6.505 500 6 C500.33 6.66 500.66 7.32 501 8 C501.33 6.35 501.66 4.7 502 3 C505.09162264 4.38589981 506.49183541 5.49183541 509 8 C509 48.92 509 89.84 509 132 C302.42 132 95.84 132 -117 132 C-117 90.42 -117 48.84 -117 6 C-116.34 6 -115.68 6 -115 6 C-115 6.66 -115 7.32 -115 8 C-114.34 8 -113.68 8 -113 8 C-112.67 7.01 -112.34 6.02 -112 5 C-111.67 5.99 -111.34 6.98 -111 8 C-110.01 8 -109.02 8 -108 8 C-108 7.01 -108 6.02 -108 5 C-107.34 5 -106.68 5 -106 5 C-105.67 5.99 -105.34 6.98 -105 8 C-104.67 7.34 -104.34 6.68 -104 6 C-102.35 6.33 -100.7 6.66 -99 7 C-98.34 6.01 -97.68 5.02 -97 4 C-96.34 5.98 -95.68 7.96 -95 10 C-89.89386809 6.97263027 -89.89386809 6.97263027 -87 2 C-86.34 2 -85.68 2 -85 2 C-84.505 5.96 -84.505 5.96 -84 10 C-83.34 10 -82.68 10 -82 10 C-81.67 8.35 -81.34 6.7 -81 5 C-80.505 6.98 -80.505 6.98 -80 9 C-79.401875 8.814375 -78.80375 8.62875 -78.1875 8.4375 C-76 8 -76 8 -73 9 C-72.34 7.35 -71.68 5.7 -71 4 C-70.21625 4.020625 -69.4325 4.04125 -68.625 4.0625 C-66.01885039 4.18684063 -66.01885039 4.18684063 -64 3 C-63.505 4.98 -63.505 4.98 -63 7 C-62.34 5.68 -61.68 4.36 -61 3 C-60.505 5.475 -60.505 5.475 -60 8 C-59.34 8 -58.68 8 -58 8 C-57.67 7.01 -57.34 6.02 -57 5 C-56.34 5.33 -55.68 5.66 -55 6 C-54.67 5.01 -54.34 4.02 -54 3 C-52.515 2.505 -52.515 2.505 -51 2 C-50.01 3.98 -50.01 3.98 -49 6 C-48.34 6 -47.68 6 -47 6 C-46.67 5.34 -46.34 4.68 -46 4 C-45.505 4.99 -45.505 4.99 -45 6 C-42.97536745 6.65213292 -42.97536745 6.65213292 -41 7 C-40.67 5.68 -40.34 4.36 -40 3 C-39.34 3 -38.68 3 -38 3 C-37.505 4.485 -37.505 4.485 -37 6 C-36.01 6 -35.02 6 -34 6 C-34 7.32 -34 8.64 -34 10 C-33.01 10 -32.02 10 -31 10 C-31 7.69 -31 5.38 -31 3 C-30.67 3 -30.34 3 -30 3 C-30 5.31 -30 7.62 -30 10 C-29.34 10 -28.68 10 -28 10 C-27.34 8.02 -26.68 6.04 -26 4 C-25.01 4.66 -24.02 5.32 -23 6 C-22.34 6 -21.68 6 -21 6 C-21 5.01 -21 4.02 -21 3 C-20.34 3 -19.68 3 -19 3 C-18.505 4.98 -18.505 4.98 -18 7 C-17.34 7 -16.68 7 -16 7 C-15.67 6.01 -15.34 5.02 -15 4 C-14.505 5.485 -14.505 5.485 -14 7 C-13.34 7 -12.68 7 -12 7 C-11.67 6.34 -11.34 5.68 -11 5 C-10.505 6.485 -10.505 6.485 -10 8 C-9.54625 7.505 -9.0925 7.01 -8.625 6.5 C-7 5 -7 5 -5 5 C-5 6.32 -5 7.64 -5 9 C-4.34 9 -3.68 9 -3 9 C-3 7.35 -3 5.7 -3 4 C-2.505 5.98 -2.505 5.98 -2 8 C-1.34 8 -0.68 8 0 8 C0 5.36 0 2.72 0 0 Z " fill="#2B4851" transform="translate(117,285)"/>
<path d="M0 0 C1.65 0 3.3 0 5 0 C5 1.32 5 2.64 5 4 C5.66 4 6.32 4 7 4 C7 5.32 7 6.64 7 8 C7.66 8 8.32 8 9 8 C9 9.98 9 11.96 9 14 C10.98 14.495 10.98 14.495 13 15 C13 15.99 13 16.98 13 18 C13.66 18 14.32 18 15 18 C15.12117187 18.61746094 15.24234375 19.23492187 15.3671875 19.87109375 C17.24353881 30.13069275 17.24353881 30.13069275 20.125 40.125 C21.15782074 43.51855385 21.14108819 46.47279519 21 50 C21.66 50 22.32 50 23 50 C28.20426928 71.42198217 32.3037286 92.70932916 34.75 114.625 C34.87785889 115.75019043 35.00571777 116.87538086 35.13745117 118.03466797 C35.97512448 126.04355576 36.13644964 133.95098739 36 142 C48.54065795 145.2817157 59.19288334 144.13534666 71.25 139.3125 C80.51189196 136.10126009 91.7460594 137.44108425 101 140 C102.43666016 140.29197266 102.43666016 140.29197266 103.90234375 140.58984375 C113.71068536 142.59906767 123.05435841 145.89276976 131.9375 150.53515625 C139.41664136 154.43778961 144.76098064 154.26950764 153 153 C154.58171392 152.79313193 156.16377026 152.58887134 157.74609375 152.38671875 C170.10486548 150.74284748 181.88394959 148.28279327 193.61279297 143.93505859 C206.36225767 139.30698641 217.70560181 140.83254422 230.72607422 142.91625977 C258.31077359 147.25599122 279.30827299 134.60527438 302.19091797 120.82885742 C308.49394627 117.04335341 314.79690826 113.35115221 321.375 110.0625 C321.99205811 109.75111084 322.60911621 109.43972168 323.24487305 109.11889648 C345.53560271 98.28907122 377.94295077 113.27457405 399.89453125 120.16015625 C423.41538109 127.38611586 443.03096196 122.76473005 466 116 C471.27142436 114.46343361 475.33219044 114 481 114 C481 152.61 481 191.22 481 231 C477.66462511 229.88820837 476.36292656 228.52588702 474 226 C474 227.98 474 229.96 474 232 C471.525 231.01 471.525 231.01 469 230 C469 229.01 469 228.02 469 227 C468.34 227 467.68 227 467 227 C466.896875 227.639375 466.79375 228.27875 466.6875 228.9375 C466.460625 229.618125 466.23375 230.29875 466 231 C465.01 231.33 464.02 231.66 463 232 C462.67 229.69 462.34 227.38 462 225 C459.48916886 226.25541557 459.12874554 227.50063488 458 230 C457.34 229.01 456.68 228.02 456 227 C455.4121875 227.9590625 455.4121875 227.9590625 454.8125 228.9375 C452.61527704 231.43778819 451.24208567 231.64950425 448 232 C447.67 230.68 447.34 229.36 447 228 C446.67 229.65 446.34 231.3 446 233 C444.68 232.67 443.36 232.34 442 232 C441.67 230.02 441.34 228.04 441 226 C440.34 226 439.68 226 439 226 C438.67 226.99 438.34 227.98 438 229 C436.68 228.67 435.36 228.34 434 228 C434 229.65 434 231.3 434 233 C432.35 233 430.7 233 429 233 C429 231.35 429 229.7 429 228 C428.34 228 427.68 228 427 228 C427 228.99 427 229.98 427 231 C426.34 231 425.68 231 425 231 C424.67 229.68 424.34 228.36 424 227 C422.68 228.65 421.36 230.3 420 232 C419.67 231.34 419.34 230.68 419 230 C418.34 230 417.68 230 417 230 C417 229.34 417 228.68 417 228 C416.34 228 415.68 228 415 228 C415 229.65 415 231.3 415 233 C414.34 233 413.68 233 413 233 C412.67 232.34 412.34 231.68 412 231 C410.02 231.33 408.04 231.66 406 232 C406 231.01 406 230.02 406 229 C404.35 229.66 402.7 230.32 401 231 C400.34 230.01 399.68 229.02 399 228 C398.34 228.99 397.68 229.98 397 231 C393.875 231.6875 393.875 231.6875 391 232 C390.34 230.68 389.68 229.36 389 228 C385.88667752 228.66868314 385.88667752 228.66868314 384.8125 231.0625 C384.544375 231.701875 384.27625 232.34125 384 233 C382.35 232.67 380.7 232.34 379 232 C378.67 230.35 378.34 228.7 378 227 C377.67 228.98 377.34 230.96 377 233 C373.88742431 233 371.89234315 232.82638376 369 232 C369 231.01 369 230.02 369 229 C368.34 229 367.68 229 367 229 C366.67 229.99 366.34 230.98 366 232 C364.741875 232.185625 363.48375 232.37125 362.1875 232.5625 C361.47980469 232.66691406 360.77210938 232.77132812 360.04296875 232.87890625 C358 233 358 233 355 232 C355 229.69 355 227.38 355 225 C354.34 225 353.68 225 353 225 C353 226.65 353 228.3 353 230 C352.34 230 351.68 230 351 230 C350.34 230.99 349.68 231.98 349 233 C348.34 233 347.68 233 347 233 C346.67 232.34 346.34 231.68 346 231 C344.68 231 343.36 231 342 231 C340 231 338 231 336 231 C335.67 230.34 335.34 229.68 335 229 C334.67 230.32 334.34 231.64 334 233 C333.34 233 332.68 233 332 233 C331.67 232.01 331.34 231.02 331 230 C330.443125 230.33 329.88625 230.66 329.3125 231 C326.69715478 232.1309601 324.8193354 232.15662974 322 232 C321.34 230.35 320.68 228.7 320 227 C319.34 228.32 318.68 229.64 318 231 C312.25 229.125 312.25 229.125 310 228 C310 227.34 310 226.68 310 226 C309.34 226 308.68 226 308 226 C307.67 228.31 307.34 230.62 307 233 C306.01 232.67 305.02 232.34 304 232 C303.67 230.35 303.34 228.7 303 227 C300.2160817 228.39195915 300.02101003 230.15575779 299 233 C298.34 233 297.68 233 297 233 C296.67 230.69 296.34 228.38 296 226 C294.35 226.33 292.7 226.66 291 227 C290.67 227.99 290.34 228.98 290 230 C288.0625 229.625 288.0625 229.625 286 229 C285.67 228.34 285.34 227.68 285 227 C284.34 228.65 283.68 230.3 283 232 C282.34 232 281.68 232 281 232 C280.67 229.69 280.34 227.38 280 225 C279.34 225.33 278.68 225.66 278 226 C277.26924352 228.3140622 276.59861742 230.64828869 276 233 C275.34 233 274.68 233 274 233 C274 232.34 274 231.68 274 231 C272.68 231 271.36 231 270 231 C269.67 231.66 269.34 232.32 269 233 C268.34 233 267.68 233 267 233 C266.525625 232.195625 266.05125 231.39125 265.5625 230.5625 C264.20016328 227.7081924 264.20016328 227.7081924 261 227 C260.34 228.98 259.68 230.96 259 233 C257.35 231.68 255.7 230.36 254 229 C253.67 229.99 253.34 230.98 253 232 C252.67 230.35 252.34 228.7 252 227 C251.34 227 250.68 227 250 227 C249.67 228.65 249.34 230.3 249 232 C248.01 232 247.02 232 246 232 C245.67 230.35 245.34 228.7 245 227 C244.5875 227.66 244.175 228.32 243.75 229 C243.1725 229.66 242.595 230.32 242 231 C240.68 231 239.36 231 238 231 C237.67 229.35 237.34 227.7 237 226 C236.34 226 235.68 226 235 226 C234.855625 226.598125 234.71125 227.19625 234.5625 227.8125 C234.1127561 229.56150404 233.57107659 231.28677023 233 233 C232.34 233 231.68 233 231 233 C230.67 231.35 230.34 229.7 230 228 C228.35 228 226.7 228 225 228 C225 227.34 225 226.68 225 226 C224.34 226 223.68 226 223 226 C223 227.65 223 229.3 223 231 C222.566875 230.0409375 222.566875 230.0409375 222.125 229.0625 C221.17176549 226.84793921 221.17176549 226.84793921 219 226 C219 227.98 219 229.96 219 232 C216.69 231.67 214.38 231.34 212 231 C212 230.34 212 229.68 212 229 C211.34 229 210.68 229 210 229 C210 228.01 210 227.02 210 226 C209.34 226 208.68 226 208 226 C207.855625 226.61875 207.71125 227.2375 207.5625 227.875 C207 230 207 230 206 232 C205.01 231.67 204.02 231.34 203 231 C202.3125 228.9375 202.3125 228.9375 202 227 C201.34 228.32 200.68 229.64 200 231 C198.68 231 197.36 231 196 231 C195.67 229.68 195.34 228.36 195 227 C194.67 227.99 194.34 228.98 194 230 C193.34 230 192.68 230 192 230 C192 229.01 192 228.02 192 227 C190.68 226.67 189.36 226.34 188 226 C187.67 228.31 187.34 230.62 187 233 C186.34 233 185.68 233 185 233 C184.34 231.68 183.68 230.36 183 229 C182.01 229.33 181.02 229.66 180 230 C179.67 229.01 179.34 228.02 179 227 C178.01 228.98 177.02 230.96 176 233 C175.67 233 175.34 233 175 233 C175 231.35 175 229.7 175 228 C174.34 228 173.68 228 173 228 C173 229.32 173 230.64 173 232 C172.34 232 171.68 232 171 232 C170.34 230.68 169.68 229.36 169 228 C168.34 229.65 167.68 231.3 167 233 C166.01 233 165.02 233 164 233 C164 231.02 164 229.04 164 227 C163.34 227 162.68 227 162 227 C161.67 228.32 161.34 229.64 161 231 C159.35 230.67 157.7 230.34 156 230 C155.67 230.99 155.34 231.98 155 233 C154.67 231.02 154.34 229.04 154 227 C152.02 227.33 150.04 227.66 148 228 C148 228.66 148 229.32 148 230 C146.68 229.67 145.36 229.34 144 229 C144 229.66 144 230.32 144 231 C143.34 231 142.68 231 142 231 C141.67 230.01 141.34 229.02 141 228 C139.68 228.33 138.36 228.66 137 229 C137 230.32 137 231.64 137 233 C136.34 233 135.68 233 135 233 C134.67 231.68 134.34 230.36 134 229 C133.67 229.66 133.34 230.32 133 231 C129.88742431 231 127.89234315 230.82638376 125 230 C124.67 230.99 124.34 231.98 124 233 C122.02 233 120.04 233 118 233 C117.67 232.01 117.34 231.02 117 230 C116.34 230 115.68 230 115 230 C115 228.68 115 227.36 115 226 C113.68 226.33 112.36 226.66 111 227 C110.67 228.65 110.34 230.3 110 232 C109.67 231.34 109.34 230.68 109 230 C108.01 229.67 107.02 229.34 106 229 C105.67 229.99 105.34 230.98 105 232 C104.34 232 103.68 232 103 232 C102.67 231.01 102.34 230.02 102 229 C101.34 229 100.68 229 100 229 C100 228.34 100 227.68 100 227 C99.34 227 98.68 227 98 227 C98 228.32 98 229.64 98 231 C97.34 231 96.68 231 96 231 C96 229.68 96 228.36 96 227 C95.34 227 94.68 227 94 227 C94 228.98 94 230.96 94 233 C93.34 233 92.68 233 92 233 C92 232.34 92 231.68 92 231 C91.34 231 90.68 231 90 231 C90 229.68 90 228.36 90 227 C87.48916886 228.25541557 87.12874554 229.50063488 86 232 C83 230 83 230 82 227 C81.01 229.97 81.01 229.97 80 233 C78.35 231.68 76.7 230.36 75 229 C74.67 229.66 74.34 230.32 74 231 C73.34 231 72.68 231 72 231 C71.67 230.34 71.34 229.68 71 229 C70.34 230.32 69.68 231.64 69 233 C68.34 233 67.68 233 67 233 C66.67 231.02 66.34 229.04 66 227 C65.01 227.99 64.02 228.98 63 230 C63 229.01 63 228.02 63 227 C62.34 227 61.68 227 61 227 C60.67 228.98 60.34 230.96 60 233 C58.68 233 57.36 233 56 233 C56 232.34 56 231.68 56 231 C55.34 231 54.68 231 54 231 C54 229.35 54 227.7 54 226 C53.34 226 52.68 226 52 226 C52 227.98 52 229.96 52 232 C50.68 231.67 49.36 231.34 48 231 C47.67 231.66 47.34 232.32 47 233 C46.34 233 45.68 233 45 233 C44.67 232.01 44.34 231.02 44 230 C43.34 230 42.68 230 42 230 C42 228.68 42 227.36 42 226 C41.34 226 40.68 226 40 226 C39.67 227.32 39.34 228.64 39 230 C38.34 228.68 37.68 227.36 37 226 C36.34 226 35.68 226 35 226 C35 226.66 35 227.32 35 228 C34.01 228 33.02 228 32 228 C32 228.66 32 229.32 32 230 C31.01 229.67 30.02 229.34 29 229 C29 228.34 29 227.68 29 227 C28.34 227 27.68 227 27 227 C27 228.98 27 230.96 27 233 C26.34 233 25.68 233 25 233 C24.67 231.68 24.34 230.36 24 229 C23.67 230.32 23.34 231.64 23 233 C22.01 233 21.02 233 20 233 C19.67 232.01 19.34 231.02 19 230 C18.34 230.66 17.68 231.32 17 232 C14.5 231.625 14.5 231.625 12 231 C11.34 231 10.68 231 10 231 C10 230.34 10 229.68 10 229 C9.34 229 8.68 229 8 229 C7.67 229.99 7.34 230.98 7 232 C6.7525 231.21625 6.505 230.4325 6.25 229.625 C4.84610901 226.67682892 3.99324263 226.0975223 1 225 C0.67 226.32 0.34 227.64 0 229 C0 228.34 0 227.68 0 227 C-0.99 227 -1.98 227 -3 227 C-3.33 228.32 -3.66 229.64 -4 231 C-7.25 231.75 -7.25 231.75 -11 232 C-13.4375 230.0625 -13.4375 230.0625 -15 228 C-15 229.65 -15 231.3 -15 233 C-15.33 231.68 -15.66 230.36 -16 229 C-16.66 229 -17.32 229 -18 229 C-18.33 229.66 -18.66 230.32 -19 231 C-20.64587505 231 -22.29189583 230.9947035 -23.9375 230.96484375 C-24.618125 230.95582031 -25.29875 230.94679688 -26 230.9375 C-26.680625 230.92589844 -27.36125 230.91429687 -28.0625 230.90234375 C-30.21964354 230.92428631 -30.21964354 230.92428631 -33 232 C-33 230.68 -33 229.36 -33 228 C-33.66 228 -34.32 228 -35 228 C-35.33 228.99 -35.66 229.98 -36 231 C-36.66 231 -37.32 231 -38 231 C-38.33 230.34 -38.66 229.68 -39 229 C-39.99 229.33 -40.98 229.66 -42 230 C-42.33 229.34 -42.66 228.68 -43 228 C-43.33 228.66 -43.66 229.32 -44 230 C-44.66 230 -45.32 230 -46 230 C-46.33 230.99 -46.66 231.98 -47 233 C-47 230.69 -47 228.38 -47 226 C-47.66 226 -48.32 226 -49 226 C-49 226.99 -49 227.98 -49 229 C-52 230 -52 230 -54 230 C-54.66 230.99 -55.32 231.98 -56 233 C-59.125 233.1875 -59.125 233.1875 -62 233 C-62.66 231.68 -63.32 230.36 -64 229 C-64.66 229.66 -65.32 230.32 -66 231 C-66 229.35 -66 227.7 -66 226 C-66.66 226 -67.32 226 -68 226 C-68.33 227.65 -68.66 229.3 -69 231 C-69.33 230.34 -69.66 229.68 -70 229 C-70.598125 229.185625 -71.19625 229.37125 -71.8125 229.5625 C-74 230 -74 230 -77 229 C-77.66 229.66 -78.32 230.32 -79 231 C-79 229.02 -79 227.04 -79 225 C-79.66 225 -80.32 225 -81 225 C-81 226.65 -81 228.3 -81 230 C-82.32 229.67 -83.64 229.34 -85 229 C-85.33 229.66 -85.66 230.32 -86 231 C-86.66 231 -87.32 231 -88 231 C-88.33 230.34 -88.66 229.68 -89 229 C-89.66 229.66 -90.32 230.32 -91 231 C-91.33 230.67 -91.66 230.34 -92 230 C-92.66 230.66 -93.32 231.32 -94 232 C-94 230.35 -94 228.7 -94 227 C-96.45224694 227.10613836 -96.45224694 227.10613836 -99 228 C-100.37466625 230.47636012 -100.37466625 230.47636012 -101 233 C-103.31 232.67 -105.62 232.34 -108 232 C-108.33 231.01 -108.66 230.02 -109 229 C-109.33 230.32 -109.66 231.64 -110 233 C-110.66 233 -111.32 233 -112 233 C-112.33 230.36 -112.66 227.72 -113 225 C-113.66 225 -114.32 225 -115 225 C-115.2475 225.763125 -115.495 226.52625 -115.75 227.3125 C-117.12130672 230.26080945 -118.2351079 231.35834532 -121 233 C-121.66 233 -122.32 233 -123 233 C-123.66 231.68 -124.32 230.36 -125 229 C-126.98 229.99 -126.98 229.99 -129 231 C-129.99 230.34 -130.98 229.68 -132 229 C-132.495 230.98 -132.495 230.98 -133 233 C-133.33 231.35 -133.66 229.7 -134 228 C-134.66 228 -135.32 228 -136 228 C-136 228.99 -136 229.98 -136 231 C-136.99 231 -137.98 231 -139 231 C-139.33 230.34 -139.66 229.68 -140 229 C-140.495 229.99 -140.495 229.99 -141 231 C-141.66 231 -142.32 231 -143 231 C-143 230.34 -143 229.68 -143 229 C-143.66 229 -144.32 229 -145 229 C-145 201.94 -145 174.88 -145 147 C-133.2907902 142.31631608 -133.2907902 142.31631608 -126.6875 141.25 C-125.96183838 141.12858643 -125.23617676 141.00717285 -124.48852539 140.88208008 C-115.07829156 139.41344282 -106.14577532 139.15131588 -97 142 C-95.16684647 142.54227485 -93.33350744 143.08392298 -91.5 143.625 C-89.99943974 144.08149574 -88.49923475 144.53916965 -87 145 C-87.03480469 143.81148437 -87.06960937 142.62296875 -87.10546875 141.3984375 C-87.57924458 117.72656639 -83.01008094 94.81098904 -77 72 C-76.34 72 -75.68 72 -75 72 C-74.70996094 70.73542969 -74.70996094 70.73542969 -74.4140625 69.4453125 C-74.15367188 68.34960938 -73.89328125 67.25390625 -73.625 66.125 C-73.36976562 65.03445312 -73.11453125 63.94390625 -72.8515625 62.8203125 C-72 60 -72 60 -70 58 C-67.3984375 57.8046875 -67.3984375 57.8046875 -64.375 57.875 C-63.37210937 57.89304688 -62.36921875 57.91109375 -61.3359375 57.9296875 C-60.17964844 57.96449219 -60.17964844 57.96449219 -59 58 C-59 59.32 -59 60.64 -59 62 C-58.34 62 -57.68 62 -57 62 C-56.54560547 63.63582031 -56.54560547 63.63582031 -56.08203125 65.3046875 C-55.88222656 66.02277588 -55.68242188 66.74086426 -55.4765625 67.48071289 C-55.02483741 69.10941436 -54.57571576 70.73883965 -54.12890625 72.36889648 C-53.053259 76.28044289 -51.96116903 80.177122 -50.73046875 84.04296875 C-46.0580688 99.08698852 -42 117.18411412 -42 133 C-40.783125 132.505 -39.56625 132.01 -38.3125 131.5 C-35.06814526 130.18026248 -32.50216802 129.85279854 -29 130 C-29.02320312 128.93265625 -29.04640625 127.8653125 -29.0703125 126.765625 C-29.33989082 109.09416283 -27.15647232 92.13227368 -24.125 74.75 C-24.00211609 74.0389209 -23.87923218 73.3278418 -23.75262451 72.59521484 C-21.52578664 59.81054567 -19.2734323 46.91615412 -14 35 C-13.45194478 33.03359817 -12.94905473 31.0538439 -12.5 29.0625 C-11.32066396 24.17316935 -10.07755557 19.58793521 -8 15 C-7.01 14.67 -6.02 14.34 -5 14 C-5.061875 12.906875 -5.12375 11.81375 -5.1875 10.6875 C-5 7 -5 7 -3.625 5.3125 C-3.08875 4.879375 -2.5525 4.44625 -2 4 C-0.82425289 1.90010348 -0.82425289 1.90010348 0 0 Z " fill="#9CCDA6" transform="translate(145,62)"/>
<path d="M0 0 C1.65 0 3.3 0 5 0 C5 1.32 5 2.64 5 4 C5.66 4 6.32 4 7 4 C7 5.32 7 6.64 7 8 C7.66 8 8.32 8 9 8 C9 9.98 9 11.96 9 14 C10.98 14.495 10.98 14.495 13 15 C13 15.99 13 16.98 13 18 C13.66 18 14.32 18 15 18 C15.12117187 18.61746094 15.24234375 19.23492187 15.3671875 19.87109375 C17.24353881 30.13069275 17.24353881 30.13069275 20.125 40.125 C21.15782074 43.51855385 21.14108819 46.47279519 21 50 C21.66 50 22.32 50 23 50 C28.20426928 71.42198217 32.3037286 92.70932916 34.75 114.625 C34.87785889 115.75019043 35.00571777 116.87538086 35.13745117 118.03466797 C35.97512448 126.04355576 36.13644964 133.95098739 36 142 C48.54065795 145.2817157 59.19288334 144.13534666 71.25 139.3125 C80.51189196 136.10126009 91.7460594 137.44108425 101 140 C102.43666016 140.29197266 102.43666016 140.29197266 103.90234375 140.58984375 C113.71068536 142.59906767 123.05435841 145.89276976 131.9375 150.53515625 C139.41664136 154.43778961 144.76098064 154.26950764 153 153 C154.58171392 152.79313193 156.16377026 152.58887134 157.74609375 152.38671875 C170.10486548 150.74284748 181.88394959 148.28279327 193.61279297 143.93505859 C206.36225767 139.30698641 217.70560181 140.83254422 230.72607422 142.91625977 C258.31077359 147.25599122 279.30827299 134.60527438 302.19091797 120.82885742 C308.49394627 117.04335341 314.79690826 113.35115221 321.375 110.0625 C321.99205811 109.75111084 322.60911621 109.43972168 323.24487305 109.11889648 C345.53560271 98.28907122 377.94295077 113.27457405 399.89453125 120.16015625 C423.41538109 127.38611586 443.03096196 122.76473005 466 116 C471.27142436 114.46343361 475.33219044 114 481 114 C481 132.15 481 150.3 481 169 C471.72192965 169 463.15076812 168.97658295 454.0625 168 C427.15789849 165.52148648 396.16390306 164.64400672 369.61865234 170.52783203 C365.72253102 171.23033983 361.85069395 171.24373298 357.8984375 171.30859375 C357.00098312 171.32362946 356.10352875 171.33866516 355.17887878 171.35415649 C352.24422788 171.39404559 349.30986169 171.41897893 346.375 171.4375 C345.3737912 171.44433807 344.3725824 171.45117615 343.34103394 171.45822144 C326.58320707 171.51454268 310.82357472 169.78448533 294.44140625 166.41015625 C288.44167386 165.17974086 282.60868402 164.55257817 276.49194336 164.30639648 C273.6716733 164.05893519 271.2471915 163.61874655 268.51025391 162.98291016 C261.76681881 161.57922858 255.03974313 161.77067941 248.18359375 161.83984375 C246.75887974 161.8461373 245.3341607 161.85136961 243.90943909 161.85560608 C240.17593152 161.8688187 236.44259204 161.89317818 232.70916748 161.92095947 C226.76200707 161.9642621 220.81481159 161.99423488 214.86754036 162.0170002 C212.82238366 162.02697178 210.77738442 162.04404934 208.73228455 162.06199646 C201.24205767 162.09998194 193.82315239 161.87304566 186.35260677 161.39315033 C178.93774428 160.91750773 171.52103387 160.66085266 164.09375 160.46484375 C163.33633011 160.44451521 162.57891022 160.42418667 161.79853821 160.40324211 C139.87840486 159.83109447 117.95071153 159.67644709 96.02397156 159.60712624 C89.55688756 159.58654415 83.09037481 159.55355375 76.62353516 159.49243164 C70.25902535 159.4324565 63.89500642 159.4015418 57.53022766 159.39179802 C55.12838412 159.38325381 52.72655359 159.36446155 50.32487488 159.3350544 C47.00048367 159.29636787 43.67807629 159.29506912 40.35351562 159.30297852 C39.37298721 159.28297791 38.3924588 159.26297729 37.38221741 159.24237061 C32.51713708 159.19220508 32.51713708 159.19220508 28.32737732 161.32470512 C26.78913328 163.11517654 26.78913328 163.11517654 25 166 C22.859375 167.64453125 22.859375 167.64453125 20.75 168.8125 C20.06421875 169.21082031 19.3784375 169.60914063 18.671875 170.01953125 C16 171 16 171 7 172 C7 180.91 7 189.82 7 199 C5.35 199.33 3.7 199.66 2 200 C8.27 200.33 14.54 200.66 21 201 C21 201.66 21 202.32 21 203 C12.74790276 206.36576223 4.71288107 207.7761638 -4.07373047 208.92285156 C-9.37885135 209.6170856 -14.57801862 210.45349971 -19.8125 211.5625 C-31.90210084 214.0701683 -44.63027008 216.17642187 -57 215 C-58.485 214.01 -58.485 214.01 -60 213 C-60 211.68 -60 210.36 -60 209 C-44.90803183 199.61850627 -26.49772605 200.4681252 -9.34399414 200.15771484 C-6.97837483 200.1500871 -6.97837483 200.1500871 -5 199 C-3.02 199 -1.04 199 1 199 C0.67 190.09 0.34 181.18 0 172 C-2.64 171.01 -5.28 170.02 -8 169 C-11.05082338 167.18123991 -13.4800212 165.60668916 -15.79199219 162.90917969 C-18.65945587 160.42979379 -20.32454071 160.46422469 -24.078125 160.390625 C-25.81835938 160.34228516 -25.81835938 160.34228516 -27.59375 160.29296875 C-28.8003125 160.27878906 -30.006875 160.26460937 -31.25 160.25 C-32.47203125 160.22035156 -33.6940625 160.19070312 -34.953125 160.16015625 C-37.96881644 160.08947598 -40.9837355 160.03676825 -44 160 C-44.30019043 160.78858398 -44.60038086 161.57716797 -44.90966797 162.38964844 C-46.02664626 165.0637935 -46.97741296 166.35213238 -49.125 168.25 C-49.66382812 168.75015625 -50.20265625 169.2503125 -50.7578125 169.765625 C-53 171 -53 171 -61 172 C-61 180.91 -61 189.82 -61 199 C-58.36 199.33 -55.72 199.66 -53 200 C-53 200.66 -53 201.32 -53 202 C-64.70774182 206.39040318 -77.11379559 207.94636608 -89.4375 209.6875 C-90.34846436 209.81898438 -91.25942871 209.95046875 -92.19799805 210.0859375 C-106.8465625 212.07671875 -106.8465625 212.07671875 -111 210 C-111 208.68 -111 207.36 -111 206 C-99.1518102 200.13286755 -85.89120317 199.91544101 -72.9140625 199.24609375 C-70.06459297 199.18661337 -70.06459297 199.18661337 -68 198 C-67.67 189.42 -67.34 180.84 -67 172 C-68.98 171.34 -70.96 170.68 -73 170 C-75.3359375 168.34375 -75.3359375 168.34375 -77.375 166.5 C-78.06335938 165.8915625 -78.75171875 165.283125 -79.4609375 164.65625 C-81 163 -81 163 -81 161 C-102.12 161 -123.24 161 -145 161 C-145 156.38 -145 151.76 -145 147 C-130.47415186 140.31349847 -112.49904326 137.17242915 -97 142 C-95.16684647 142.54227485 -93.33350744 143.08392298 -91.5 143.625 C-89.99943974 144.08149574 -88.49923475 144.53916965 -87 145 C-87.03480469 143.81148437 -87.06960937 142.62296875 -87.10546875 141.3984375 C-87.57924458 117.72656639 -83.01008094 94.81098904 -77 72 C-76.34 72 -75.68 72 -75 72 C-74.70996094 70.73542969 -74.70996094 70.73542969 -74.4140625 69.4453125 C-74.15367188 68.34960938 -73.89328125 67.25390625 -73.625 66.125 C-73.36976562 65.03445312 -73.11453125 63.94390625 -72.8515625 62.8203125 C-72 60 -72 60 -70 58 C-67.3984375 57.8046875 -67.3984375 57.8046875 -64.375 57.875 C-63.37210937 57.89304688 -62.36921875 57.91109375 -61.3359375 57.9296875 C-60.17964844 57.96449219 -60.17964844 57.96449219 -59 58 C-59 59.32 -59 60.64 -59 62 C-58.34 62 -57.68 62 -57 62 C-56.54560547 63.63582031 -56.54560547 63.63582031 -56.08203125 65.3046875 C-55.88222656 66.02277588 -55.68242188 66.74086426 -55.4765625 67.48071289 C-55.02483741 69.10941436 -54.57571576 70.73883965 -54.12890625 72.36889648 C-53.053259 76.28044289 -51.96116903 80.177122 -50.73046875 84.04296875 C-46.0580688 99.08698852 -42 117.18411412 -42 133 C-40.783125 132.505 -39.56625 132.01 -38.3125 131.5 C-35.06814526 130.18026248 -32.50216802 129.85279854 -29 130 C-29.02320312 128.93265625 -29.04640625 127.8653125 -29.0703125 126.765625 C-29.33989082 109.09416283 -27.15647232 92.13227368 -24.125 74.75 C-24.00211609 74.0389209 -23.87923218 73.3278418 -23.75262451 72.59521484 C-21.52578664 59.81054567 -19.2734323 46.91615412 -14 35 C-13.45194478 33.03359817 -12.94905473 31.0538439 -12.5 29.0625 C-11.32066396 24.17316935 -10.07755557 19.58793521 -8 15 C-7.01 14.67 -6.02 14.34 -5 14 C-5.061875 12.906875 -5.12375 11.81375 -5.1875 10.6875 C-5 7 -5 7 -3.625 5.3125 C-3.08875 4.879375 -2.5525 4.44625 -2 4 C-0.82425289 1.90010348 -0.82425289 1.90010348 0 0 Z " fill="#95CCA6" transform="translate(145,62)"/>
<path d="M0 0 C1.90750599 -0.3719368 1.90750599 -0.3719368 4.28144836 -0.36749268 C5.63156509 -0.37584641 5.63156509 -0.37584641 7.00895691 -0.3843689 C8.00027115 -0.37515411 8.99158539 -0.36593933 10.01293945 -0.35644531 C11.5774585 -0.35951187 11.5774585 -0.35951187 13.17358398 -0.36264038 C16.65365682 -0.36566785 20.13326379 -0.34707173 23.61328125 -0.328125 C26.05527123 -0.32506286 28.49726297 -0.3231902 30.93925476 -0.32244873 C36.09197564 -0.31782905 41.24454172 -0.3033697 46.3972168 -0.28125 C52.88767855 -0.2534814 59.37801707 -0.24218096 65.86853218 -0.23743439 C88.61674967 -0.219164 111.36447313 -0.16846608 134.10546875 0.453125 C134.81875147 0.47230736 135.53203419 0.49148972 136.26693153 0.51125336 C143.69215841 0.71840112 151.09745167 1.05677631 158.50927734 1.5324707 C165.91666061 1.99883816 173.29117928 2.1097458 180.71468925 2.04459953 C182.82331404 2.0266878 184.93185823 2.016754 187.0405426 2.00868225 C193.02083912 1.9846547 199.00102317 1.94855265 204.98120117 1.90405273 C208.67718374 1.87709075 212.37310718 1.86017442 216.06917 1.84918404 C217.45926192 1.84304342 218.84934322 1.83312772 220.23937798 1.81910515 C227.32214719 1.74814115 234.00147837 1.86280634 240.91033936 3.52349854 C244.50044997 4.34214484 248.14850022 4.52739708 251.8125 4.8125 C257.68053077 5.30848369 263.39802258 6.02319819 269.1640625 7.23828125 C284.67675136 10.46232117 299.42779072 11.47608324 315.25 11.4375 C316.20413788 11.43735901 317.15827576 11.43721802 318.1413269 11.43707275 C330.24438319 11.40762842 342.01300502 10.62373322 354 9 C386.57232311 5.23621516 418.43865509 7.27710008 451 10 C451 24.19 451 38.38 451 53 C446.029375 53.020625 441.05875 53.04125 435.9375 53.0625 C433.63640259 53.07615601 433.63640259 53.07615601 431.28881836 53.09008789 C424.85098186 53.10282957 418.48936996 53.01775695 412.06640625 52.5234375 C405.33445298 52.02223026 398.62432984 51.85334788 391.875 51.75390625 C390.75899918 51.73725418 389.64299835 51.72060211 388.49317932 51.70344543 C383.86774751 51.6377046 379.24228643 51.57693268 374.61669922 51.52319336 C359.85875591 51.34467847 345.15966391 50.84492199 330.42578125 50.03125 C309.9478051 48.9037122 289.47164891 48.40746833 268.96850586 47.99383545 C261.52041424 47.84295781 254.07249927 47.68411524 246.62465858 47.52136421 C244.08268149 47.46702858 241.54065059 47.41671287 238.99858093 47.3669281 C230.38720476 47.18871625 221.80246895 46.86044687 213.20417213 46.35107231 C207.54325506 46.01802801 201.89330151 45.82451201 196.22265625 45.75390625 C194.26326289 45.72221513 192.30387172 45.69038877 190.34448242 45.65844727 C189.32744232 45.64306915 188.31040222 45.62769104 187.26254272 45.61184692 C166.06447575 45.28495773 144.87729644 44.72856957 123.6875 44.0625 C104.20208576 43.45044244 84.71663197 42.9037941 65.2265625 42.4609375 C63.76981204 42.42781243 63.76981204 42.42781243 62.28363228 42.39401817 C52.6511126 42.17571315 43.01848411 41.96281082 33.38570118 41.75645351 C14.57831841 41.35250352 -4.20738343 40.87786923 -23 40 C-23 31.09 -23 22.18 -23 13 C-19.04 12.01 -15.08 11.02 -11 10 C-7.9773313 8.44401115 -7.9773313 8.44401115 -5.875 6.5 C-5.17117187 5.9121875 -4.46734375 5.324375 -3.7421875 4.71875 C-1.79846772 2.91734956 -1.79846772 2.91734956 0 0 Z " fill="#E8FDE9" transform="translate(175,221)"/>
<path d="M0 0 C23.52084984 7.22595961 43.13643071 2.6045738 66.10546875 -4.16015625 C71.37689311 -5.69672264 75.43765919 -6.16015625 81.10546875 -6.16015625 C81.10546875 8.02984375 81.10546875 22.21984375 81.10546875 36.83984375 C-34.72453125 36.83984375 -150.55453125 36.83984375 -269.89453125 36.83984375 C-269.89453125 36.50984375 -269.89453125 36.17984375 -269.89453125 35.83984375 C-268.87319092 35.70932617 -267.85185059 35.57880859 -266.79956055 35.44433594 C-235.42706102 31.94167195 -235.42706102 31.94167195 -205.14453125 23.58984375 C-192.93509819 18.99957863 -181.72454703 20.74793807 -169.16796875 22.75585938 C-141.58512584 27.09878011 -120.58420349 14.44388106 -97.70361328 0.66870117 C-91.40058498 -3.11680284 -85.09762299 -6.80900404 -78.51953125 -10.09765625 C-77.90247314 -10.40904541 -77.28541504 -10.72043457 -76.6496582 -11.04125977 C-54.35892854 -21.87108503 -21.95158048 -6.8855822 0 0 Z " fill="#27424C" transform="translate(544.89453125,182.16015625)"/>
<path d="M0 0 C0.99773437 0.02320312 1.99546875 0.04640625 3.0234375 0.0703125 C4.02632813 0.08835937 5.02921875 0.10640625 6.0625 0.125 C6.83335938 0.14820312 7.60421875 0.17140625 8.3984375 0.1953125 C8.3984375 1.5153125 8.3984375 2.8353125 8.3984375 4.1953125 C9.0584375 4.1953125 9.7184375 4.1953125 10.3984375 4.1953125 C10.85283203 5.83113281 10.85283203 5.83113281 11.31640625 7.5 C11.51621094 8.21808838 11.71601562 8.93617676 11.921875 9.67602539 C12.37360009 11.30472686 12.82272174 12.93415215 13.26953125 14.56420898 C14.3451785 18.47575539 15.43726847 22.3724345 16.66796875 26.23828125 C21.3403687 41.28230102 25.3984375 59.37942662 25.3984375 75.1953125 C29.74308286 74.58706215 34.07395617 73.93363858 38.3984375 73.1953125 C38.6253125 74.3915625 38.8521875 75.5878125 39.0859375 76.8203125 C41.05342675 85.68806764 44.34632992 94.09109735 48.3984375 102.1953125 C40.1484375 102.1953125 31.8984375 102.1953125 23.3984375 102.1953125 C22.7384375 103.8453125 22.0784375 105.4953125 21.3984375 107.1953125 C19.953125 108.9609375 19.953125 108.9609375 18.2734375 110.4453125 C17.73460938 110.94546875 17.19578125 111.445625 16.640625 111.9609375 C14.3984375 113.1953125 14.3984375 113.1953125 6.3984375 114.1953125 C6.3984375 123.1053125 6.3984375 132.0153125 6.3984375 141.1953125 C9.0384375 141.5253125 11.6784375 141.8553125 14.3984375 142.1953125 C14.3984375 142.8553125 14.3984375 143.5153125 14.3984375 144.1953125 C2.69069568 148.58571568 -9.71535809 150.14167858 -22.0390625 151.8828125 C-22.95002686 152.01429688 -23.86099121 152.14578125 -24.79956055 152.28125 C-39.448125 154.27203125 -39.448125 154.27203125 -43.6015625 152.1953125 C-43.6015625 150.8753125 -43.6015625 149.5553125 -43.6015625 148.1953125 C-31.7533727 142.32818005 -18.49276567 142.11075351 -5.515625 141.44140625 C-2.66615547 141.38192587 -2.66615547 141.38192587 -0.6015625 140.1953125 C-0.2715625 131.6153125 0.0584375 123.0353125 0.3984375 114.1953125 C-1.5815625 113.5353125 -3.5615625 112.8753125 -5.6015625 112.1953125 C-7.9375 110.5390625 -7.9375 110.5390625 -9.9765625 108.6953125 C-10.66492188 108.086875 -11.35328125 107.4784375 -12.0625 106.8515625 C-13.6015625 105.1953125 -13.6015625 105.1953125 -13.6015625 103.1953125 C-34.7215625 103.1953125 -55.8415625 103.1953125 -77.6015625 103.1953125 C-77.6015625 98.5753125 -77.6015625 93.9553125 -77.6015625 89.1953125 C-63.07571436 82.50881097 -45.10060576 79.36774165 -29.6015625 84.1953125 C-27.76840897 84.73758735 -25.93506994 85.27923548 -24.1015625 85.8203125 C-22.60100224 86.27680824 -21.10079725 86.73448215 -19.6015625 87.1953125 C-19.63636719 86.00679688 -19.67117187 84.81828125 -19.70703125 83.59375 C-20.18080708 59.92187889 -15.61164344 37.00630154 -9.6015625 14.1953125 C-8.9415625 14.1953125 -8.2815625 14.1953125 -7.6015625 14.1953125 C-7.40820312 13.35226563 -7.21484375 12.50921875 -7.015625 11.640625 C-6.75523438 10.54492188 -6.49484375 9.44921875 -6.2265625 8.3203125 C-5.84371094 6.68449219 -5.84371094 6.68449219 -5.453125 5.015625 C-4.38233242 1.46923856 -3.78730587 0.28433227 0 0 Z " fill="#94CCA6" transform="translate(77.6015625,119.8046875)"/>
<path d="M0 0 C15.73156633 -0.28076167 15.73156633 -0.28076167 22.45703125 -0.34179688 C27.03980505 -0.38358428 31.62159643 -0.43291855 36.20361328 -0.52807617 C39.8995473 -0.60434828 43.59442762 -0.6460328 47.2910881 -0.6641407 C48.69858766 -0.67703778 50.1060319 -0.70222522 51.5130806 -0.7401104 C62.62916732 -1.02740721 62.62916732 -1.02740721 65.95379639 1.46432495 C67.41162109 3.29272461 67.41162109 3.29272461 68.41903687 5.10215759 C70.58591031 7.96125827 70.58591031 7.96125827 78 11 C78 18.92 78 26.84 78 35 C51.98014934 35.13245399 26.00872124 34.76738061 0 34 C0 22.78 0 11.56 0 0 Z " fill="#F4FDF0" transform="translate(0,223)"/>
<path d="M0 0 C137.94 0 275.88 0 418 0 C418 3.63 418 7.26 418 11 C408.9240249 11.2402464 400.09457559 10.88060462 391.0625 10 C364.1431807 7.54513426 333.17849239 6.64077296 306.61865234 12.52783203 C302.72253102 13.23033983 298.85069395 13.24373298 294.8984375 13.30859375 C293.55225594 13.33114731 293.55225594 13.33114731 292.17887878 13.35415649 C289.24422788 13.39404559 286.30986169 13.41897893 283.375 13.4375 C282.3737912 13.44433807 281.3725824 13.45117615 280.34103394 13.45822144 C263.58320707 13.51454268 247.82357472 11.78448533 231.44140625 8.41015625 C225.44167386 7.17974086 219.60868402 6.55257817 213.49194336 6.30639648 C210.6716733 6.05893519 208.2471915 5.61874655 205.51025391 4.98291016 C198.76681881 3.57922858 192.03974313 3.77067941 185.18359375 3.83984375 C183.75887974 3.8461373 182.3341607 3.85136961 180.90943909 3.85560608 C177.17593152 3.8688187 173.44259204 3.89317818 169.70916748 3.92095947 C163.76200707 3.9642621 157.81481159 3.99423488 151.86754036 4.0170002 C149.82238366 4.02697178 147.77738442 4.04404934 145.73228455 4.06199646 C138.26603791 4.09986033 130.87229643 3.87345077 123.42596626 3.39258385 C115.64909872 2.89429771 107.87155099 2.66918998 100.08203125 2.47265625 C99.30411539 2.45223833 98.52619953 2.43182041 97.72471046 2.41078377 C78.61068819 1.9121973 59.49341449 1.68053362 40.37445068 1.46777344 C35.79322884 1.41615755 31.2120466 1.36122787 26.63085938 1.30664062 C17.75394036 1.20132413 8.87698671 1.09944666 0 1 C0 0.67 0 0.34 0 0 Z " fill="#A6D8BB" transform="translate(208,220)"/>
<path d="M0 0 C4.16593199 -0.20478598 8.33055793 -0.32813027 12.5 -0.4375 C14.25957031 -0.52547852 14.25957031 -0.52547852 16.0546875 -0.61523438 C22.0738399 -0.7335885 26.01665574 -0.69340933 30.64453125 3.4140625 C31.22823486 4.03877441 31.81193848 4.66348633 32.41333008 5.30712891 C35.76621669 8.88443553 40.54154337 10.21661735 45 12 C45 20.58 45 29.16 45 38 C3.13667426 38.18451025 3.13667426 38.18451025 -17 37 C-17 28.75 -17 20.5 -17 12 C-14.03 11.01 -11.06 10.02 -8 9 C-4.19290445 6.30042315 -1.9184989 4.20285108 0 0 Z " fill="#F2FDEE" transform="translate(101,222)"/>
<path d="M0 0 C0.95777344 0.19464844 1.91554688 0.38929688 2.90234375 0.58984375 C15.65369703 3.20193915 27.26013759 8.48397317 39 14 C38.67 14.66 38.34 15.32 38 16 C150.86 16.33 263.72 16.66 380 17 C380 17.33 380 17.66 380 18 C231.17 18.33 82.34 18.66 -71 19 C-69.35 13.39 -67.7 7.78 -66 2 C-63.834375 2.495 -63.834375 2.495 -61.625 3 C-50.31119597 5.20873421 -40.4250365 3.5825146 -29.75 -0.6875 C-20.48810804 -3.89873991 -9.2539406 -2.55891575 0 0 Z " fill="#5B8F89" transform="translate(246,202)"/>
<path d="M0 0 C1.18070068 0.00757324 2.36140137 0.01514648 3.57788086 0.02294922 C16.61335826 0.26932577 26.70922478 2.97454062 37.5625 10.4375 C38.5525 11.0975 39.5425 11.7575 40.5625 12.4375 C40.5625 13.0975 40.5625 13.7575 40.5625 14.4375 C41.18125 14.685 41.8 14.9325 42.4375 15.1875 C44.5625 16.4375 44.5625 16.4375 46.5625 20.4375 C5.9725 20.4375 -34.6175 20.4375 -76.4375 20.4375 C-75.12843244 16.51029732 -73.43442687 15.53376184 -69.96484375 13.45703125 C-65.30378829 11.57676004 -60.35230442 11.5949621 -55.4375 12.4375 C-54.74140625 12.9634375 -54.0453125 13.489375 -53.328125 14.03125 C-51.56577852 15.66147526 -51.56577852 15.66147526 -49.47265625 15.296875 C-47.10178471 14.29573922 -45.04425409 13.07410723 -42.875 11.6875 C-29.26004824 3.3871566 -15.95757877 -0.14420533 0 0 Z " fill="#FAFAFB" transform="translate(163.4375,31.5625)"/>
<path d="M0 0 C1.7187232 2.14962816 2.27841897 4.06496764 2.99609375 6.71484375 C3.23585937 7.58109375 3.475625 8.44734375 3.72265625 9.33984375 C3.93664063 10.12359375 4.150625 10.90734375 4.37109375 11.71484375 C4.86609375 13.19984375 4.86609375 13.19984375 5.37109375 14.71484375 C-15.41890625 14.71484375 -36.20890625 14.71484375 -57.62890625 14.71484375 C-57.62890625 10.09484375 -57.62890625 5.47484375 -57.62890625 0.71484375 C-41.63978449 -6.64522817 -15.15549519 -11.95721323 0 0 Z " fill="#5B958C" transform="translate(57.62890625,208.28515625)"/>
<path d="M0 0 C1.98 0 3.96 0 6 0 C6 8.91 6 17.82 6 27 C4.35 27.33 2.7 27.66 1 28 C7.27 28.33 13.54 28.66 20 29 C20 29.66 20 30.32 20 31 C11.74790276 34.36576223 3.71288107 35.7761638 -5.07373047 36.92285156 C-10.37885135 37.6170856 -15.57801862 38.45349971 -20.8125 39.5625 C-32.90210084 42.0701683 -45.63027008 44.17642187 -58 43 C-58.99 42.34 -59.98 41.68 -61 41 C-61 39.68 -61 38.36 -61 37 C-45.90803183 27.61850627 -27.49772605 28.4681252 -10.34399414 28.15771484 C-7.97837483 28.1500871 -7.97837483 28.1500871 -6 27 C-4.02 27 -2.04 27 0 27 C0 18.09 0 9.18 0 0 Z " fill="#6DAE93" transform="translate(146,234)"/>
<path d="M0 0 C1.98 0 3.96 0 6 0 C6 8.91 6 17.82 6 27 C8.64 27.33 11.28 27.66 14 28 C14 28.66 14 29.32 14 30 C2.29225818 34.39040318 -10.11379559 35.94636608 -22.4375 37.6875 C-23.80394653 37.88472656 -23.80394653 37.88472656 -25.19799805 38.0859375 C-39.8465625 40.07671875 -39.8465625 40.07671875 -44 38 C-44 36.68 -44 35.36 -44 34 C-32.1518102 28.13286755 -18.89120317 27.91544101 -5.9140625 27.24609375 C-3.06459297 27.18661337 -3.06459297 27.18661337 -1 26 C-0.67 17.42 -0.34 8.84 0 0 Z " fill="#6CAD91" transform="translate(78,234)"/>
<path d="M0 0 C0.99 0 1.98 0 3 0 C3.3403125 1.794375 3.3403125 1.794375 3.6875 3.625 C5.65498925 12.49275514 8.94789242 20.89578485 13 29 C5.08 29 -2.84 29 -11 29 C-11.08071599 24.89544235 -11.14036813 20.79246164 -11.1875 16.6875 C-11.21263672 15.52025391 -11.23777344 14.35300781 -11.26367188 13.15039062 C-11.27817383 11.47299805 -11.27817383 11.47299805 -11.29296875 9.76171875 C-11.3086792 8.73006592 -11.32438965 7.69841309 -11.34057617 6.63549805 C-11 4 -11 4 -9.70825195 2.14770508 C-6.97129415 0.30885434 -4.20281501 0.88137722 -1 1 C-0.67 0.67 -0.34 0.34 0 0 Z " fill="#64A392" transform="translate(113,193)"/>
<path d="M0 0 C52.8 0 105.6 0 160 0 C160 0.99 160 1.98 160 3 C162.31 3 164.62 3 167 3 C167 3.33 167 3.66 167 4 C162.6115757 4.02523645 158.2231929 4.04310541 153.8347168 4.05493164 C152.35033429 4.05987586 150.86595641 4.06663263 149.3815918 4.07543945 C147.21401813 4.08795176 145.04651016 4.0933268 142.87890625 4.09765625 C140.93866577 4.10551147 140.93866577 4.10551147 138.95922852 4.11352539 C134.63163319 4.06256222 130.32081017 3.79564472 126.00244141 3.52685547 C117.36478965 2.99182044 108.73287423 2.69092163 100.08203125 2.47265625 C99.30411539 2.45223833 98.52619953 2.43182041 97.72471046 2.41078377 C78.61068819 1.9121973 59.49341449 1.68053362 40.37445068 1.46777344 C35.79322884 1.41615755 31.2120466 1.36122787 26.63085938 1.30664062 C17.75394036 1.20132413 8.87698671 1.09944666 0 1 C0 0.67 0 0.34 0 0 Z " fill="#B7DCC5" transform="translate(208,220)"/>
<path d="M0 0 C16.5 0 33 0 50 0 C50 0.33 50 0.66 50 1 C43.11146052 3.07576888 36.60376377 3.35164304 29.4375 3.5 C20.65771291 3.74540735 12.13129432 4.2720259 3.46484375 5.6953125 C2.24474609 5.84613281 2.24474609 5.84613281 1 6 C0.67 5.67 0.34 5.34 0 5 C0 3.35 0 1.7 0 0 Z " fill="#84C8A0" transform="translate(96,260)"/>
<path d="M0 0 C19.14 0 38.28 0 58 0 C58.495 1.98 58.495 1.98 59 4 C39.32645702 3.47254553 19.66049418 2.90597328 0 2 C0 1.34 0 0.68 0 0 Z " fill="#FDFAFB" transform="translate(86,256)"/>
<path d="M0 0 C1.98 0 3.96 0 6 0 C6 8.58 6 17.16 6 26 C4.02 26 2.04 26 0 26 C0 17.42 0 8.84 0 0 Z " fill="#AA7D53" transform="translate(146,234)"/>
<path d="M0 0 C1.98 0 3.96 0 6 0 C6 8.58 6 17.16 6 26 C4.02 26 2.04 26 0 26 C0 17.42 0 8.84 0 0 Z " fill="#AC8960" transform="translate(78,234)"/>
<path d="M0 0 C10.23 0 20.46 0 31 0 C31 1.32 31 2.64 31 4 C15.16 4.495 15.16 4.495 -1 5 C-0.67 3.35 -0.34 1.7 0 0 Z " fill="#F2FAEA" transform="translate(385,140)"/>
<path d="M0 0 C0.88751953 0.63228516 0.88751953 0.63228516 1.79296875 1.27734375 C2.58316406 1.82519531 3.37335938 2.37304688 4.1875 2.9375 C4.96480469 3.48277344 5.74210937 4.02804688 6.54296875 4.58984375 C9.07950299 6.0456289 11.1218182 6.59613435 14 7 C13.01 7.495 13.01 7.495 12 8 C13.98 10.97 15.96 13.94 18 17 C13 16 13 16 11.125 14.3125 C8.8627491 12.5757985 8.8627491 12.5757985 5.25 13.8125 C4.1775 14.204375 3.105 14.59625 2 15 C1.34 14.34 0.68 13.68 0 13 C1.65 12.34 3.3 11.68 5 11 C3.95728026 8.7541421 2.91350633 6.89021957 1.375 4.9375 C0 3 0 3 0 0 Z " fill="#3C575D" transform="translate(301,66)"/>
<path d="M0 0 C12.50847951 -0.08012549 24.99644708 0.17229035 37.5 0.5 C39.40233906 0.5483618 41.3046828 0.59653996 43.20703125 0.64453125 C47.804744 0.76091092 52.4023869 0.8797508 57 1 C56.0409375 1.4640625 56.0409375 1.4640625 55.0625 1.9375 C53.06389179 2.8345163 53.06389179 2.8345163 52 4 C49.30345146 4.07319621 46.63308542 4.09242537 43.9375 4.0625 C43.17888672 4.05798828 42.42027344 4.05347656 41.63867188 4.04882812 C39.75908129 4.0370068 37.87953101 4.01907078 36 4 C36 3.34 36 2.68 36 2 C35.40687012 2.00523682 34.81374023 2.01047363 34.20263672 2.01586914 C22.7504305 2.10341746 11.41102662 2.09047353 0 1 C0 0.67 0 0.34 0 0 Z " fill="#C6DBB3" transform="translate(428,268)"/>
<path d="M0 0 C5.28 0 10.56 0 16 0 C16 0.66 16 1.32 16 2 C18.64 2 21.28 2 24 2 C24 2.66 24 3.32 24 4 C16.08 4 8.16 4 0 4 C0 2.68 0 1.36 0 0 Z " fill="#F5F9F4" transform="translate(288,138)"/>
<path d="M0 0 C1.98 0 3.96 0 6 0 C6 0.66 6 1.32 6 2 C6.66 2 7.32 2 8 2 C8.66 3.98 9.32 5.96 10 8 C9.24074219 8.03738281 8.48148438 8.07476562 7.69921875 8.11328125 C6.70535156 8.17902344 5.71148437 8.24476562 4.6875 8.3125 C3.70136719 8.37050781 2.71523437 8.42851563 1.69921875 8.48828125 C-1.24384457 9.04622813 -2.18182999 9.68540132 -4 12 C-4 10.68 -4 9.36 -4 8 C-3.34 8 -2.68 8 -2 8 C-1.34 5.36 -0.68 2.72 0 0 Z " fill="#E1E7B2" transform="translate(76,112)"/>
<path d="M0 0 C2.475 0.495 2.475 0.495 5 1 C5 3.31 5 5.62 5 8 C4.01 8.495 4.01 8.495 3 9 C2.67 14.61 2.34 20.22 2 26 C1.34 26 0.68 26 0 26 C0 17.42 0 8.84 0 0 Z " fill="#AC845E" transform="translate(78,234)"/>
<path d="M0 0 C2.31 0 4.62 0 7 0 C7 0.66 7 1.32 7 2 C8.98 2 10.96 2 13 2 C13 1.34 13 0.68 13 0 C15.64 0 18.28 0 21 0 C21 1.98 21 3.96 21 6 C14.21526979 5.3476221 7.47786336 4.16619751 1 2 C0.67 1.34 0.34 0.68 0 0 Z " fill="#F9F9D5" transform="translate(243,200)"/>
<path d="M0 0 C1.98 0 3.96 0 6 0 C6.52849741 5.28497409 6.52849741 5.28497409 6 8 C3 10.5 3 10.5 0 12 C0 8.04 0 4.08 0 0 Z " fill="#83562C" transform="translate(146,234)"/>
<path d="M0 0 C1.875 0.3125 1.875 0.3125 4 1 C4.66 1.99 5.32 2.98 6 4 C-1.92 4 -9.84 4 -18 4 C-17.34 3.67 -16.68 3.34 -16 3 C-16 2.34 -16 1.68 -16 1 C-10.72 1.33 -5.44 1.66 0 2 C0 1.34 0 0.68 0 0 Z " fill="#45857F" transform="translate(120,218)"/>
<path d="M0 0 C0.88751953 0.63228516 0.88751953 0.63228516 1.79296875 1.27734375 C2.58316406 1.82519531 3.37335938 2.37304688 4.1875 2.9375 C4.96480469 3.48277344 5.74210937 4.02804688 6.54296875 4.58984375 C9.07950299 6.0456289 11.1218182 6.59613435 14 7 C13.01 7.33 12.02 7.66 11 8 C11 8.66 11 9.32 11 10 C9.68 10.33 8.36 10.66 7 11 C7 10.34 7 9.68 7 9 C6.401875 8.7525 5.80375 8.505 5.1875 8.25 C2.66413131 6.80807503 1.49969924 5.47450374 0 3 C0 2.01 0 1.02 0 0 Z " fill="#192E40" transform="translate(301,66)"/>
<path d="M0 0 C7.26 0 14.52 0 22 0 C22 0.33 22 0.66 22 1 C18.7 1 15.4 1 12 1 C12 1.66 12 2.32 12 3 C7.38 3 2.76 3 -2 3 C-1.34 2.67 -0.68 2.34 0 2 C0 1.34 0 0.68 0 0 Z " fill="#93C6AF" transform="translate(84,259)"/>
<path d="M0 0 C1.32 0.33 2.64 0.66 4 1 C3.67 3.31 3.34 5.62 3 8 C0.36 8 -2.28 8 -5 8 C-5 6.35 -5 4.7 -5 3 C-4.34 2.67 -3.68 2.34 -3 2 C-3 3.65 -3 5.3 -3 7 C-2.34 7 -1.68 7 -1 7 C-0.67 4.69 -0.34 2.38 0 0 Z " fill="#36605D" transform="translate(333,288)"/>
<path d="M0 0 C2.64 0 5.28 0 8 0 C8.33 1.32 8.66 2.64 9 4 C5.25 5.125 5.25 5.125 3 4 C2.67 4.99 2.34 5.98 2 7 C1.34 4.69 0.68 2.38 0 0 Z " fill="#85BC9A" transform="translate(298,288)"/>
<path d="M0 0 C0.33 0.66 0.66 1.32 1 2 C1.99 1.67 2.98 1.34 4 1 C5.32 1 6.64 1 8 1 C8.33 2.32 8.66 3.64 9 5 C5.04 5 1.08 5 -3 5 C-3 4.01 -3 3.02 -3 2 C-2.01 2 -1.02 2 0 2 C0 1.34 0 0.68 0 0 Z " fill="#35565C" transform="translate(483,291)"/>
<path d="M0 0 C0 0.33 0 0.66 0 1 C-2.64 1.33 -5.28 1.66 -8 2 C-8 2.66 -8 3.32 -8 4 C-14.27 4 -20.54 4 -27 4 C-27 3.67 -27 3.34 -27 3 C-26.154375 2.95101563 -25.30875 2.90203125 -24.4375 2.8515625 C-16.92330052 2.40053428 -16.92330052 2.40053428 -9.5625 0.9375 C-6.19277937 0.05073141 -3.46130389 -0.17306519 0 0 Z " fill="#72AD84" transform="translate(152,260)"/>
<path d="M0 0 C0.12375 0.639375 0.2475 1.27875 0.375 1.9375 C0.58125 2.618125 0.7875 3.29875 1 4 C1.66 4.33 2.32 4.66 3 5 C-0.63423209 7.32590854 -3.77088331 7.16265833 -8 7 C-7.67 5.02 -7.34 3.04 -7 1 C-6.401875 1.309375 -5.80375 1.61875 -5.1875 1.9375 C-2.91043228 3.10209704 -2.91043228 3.10209704 0 4 C0 2.68 0 1.36 0 0 Z " fill="#38655F" transform="translate(137,289)"/>
<path d="M0 0 C0.66 0.33 1.32 0.66 2 1 C1.01 3.31 0.02 5.62 -1 8 C-1.33 8 -1.66 8 -2 8 C-2 6.35 -2 4.7 -2 3 C-2.66 3 -3.32 3 -4 3 C-4 4.32 -4 5.64 -4 7 C-4.66 7 -5.32 7 -6 7 C-6.66 5.02 -7.32 3.04 -8 1 C-7.05125 1.020625 -6.1025 1.04125 -5.125 1.0625 C-2.09333717 1.22551826 -2.09333717 1.22551826 0 0 Z " fill="#83BA99" transform="translate(322,287)"/>
<path d="M0 0 C0.66 0 1.32 0 2 0 C2 2.31 2 4.62 2 7 C2.99 6.67 3.98 6.34 5 6 C5 6.66 5 7.32 5 8 C5.66 8.33 6.32 8.66 7 9 C6.05125 8.835 5.1025 8.67 4.125 8.5 C0.5807695 7.93292312 -0.58663219 7.86221073 -4 9 C-3.67 7.35 -3.34 5.7 -3 4 C-2.01 4.33 -1.02 4.66 0 5 C0 3.35 0 1.7 0 0 Z " fill="#355D5B" transform="translate(498,287)"/>
<path d="M0 0 C3.96 0 7.92 0 12 0 C12 0.66 12 1.32 12 2 C8.89608238 3.83935859 6.60570855 4.55472439 3 4 C2.01 2.68 1.02 1.36 0 0 Z " fill="#76B69B" transform="translate(80,262)"/>
<path d="M0 0 C1.32 0.33 2.64 0.66 4 1 C4 3.31 4 5.62 4 8 C2.02 8.99 2.02 8.99 0 10 C0 6.7 0 3.4 0 0 Z " fill="#734F27" transform="translate(79,234)"/>
<path d="M0 0 C6.75 0.75 6.75 0.75 9 3 C8 4 8 4 5.93359375 4.09765625 C5.10988281 4.08605469 4.28617187 4.07445312 3.4375 4.0625 C2.61121094 4.05347656 1.78492188 4.04445312 0.93359375 4.03515625 C0.29550781 4.02355469 -0.34257812 4.01195312 -1 4 C-0.67 2.68 -0.34 1.36 0 0 Z " fill="#568C83" transform="translate(276,214)"/>
<path d="M0 0 C-3.49087093 4.0042343 -5.64951939 5.62671065 -11 6 C-9.90648447 2.82880497 -8.9873012 1.99216457 -6.0625 0.1875 C-3 -1 -3 -1 0 0 Z " fill="#355657" transform="translate(462,177)"/>
<path d="M0 0 C0.33 0 0.66 0 1 0 C1 1.65 1 3.3 1 5 C-1.64738916 6.4606285 -2.89448334 7 -6 7 C-5.67 5.02 -5.34 3.04 -5 1 C-3.68 1 -2.36 1 -1 1 C-0.67 0.67 -0.34 0.34 0 0 Z " fill="#406D64" transform="translate(211,288)"/>
<path d="M0 0 C-1.875 2.0625 -1.875 2.0625 -5 4 C-8.40453547 4.0571754 -11.65331142 3.59785505 -15 3 C-10.11386285 0.41507583 -5.50308942 -0.16185557 0 0 Z " fill="#172B37" transform="translate(323,212)"/>
<path d="M0 0 C1.23556641 0.01740234 1.23556641 0.01740234 2.49609375 0.03515625 C3.32238281 0.04417969 4.14867187 0.05320313 5 0.0625 C5.63808594 0.07410156 6.27617188 0.08570313 6.93359375 0.09765625 C4.26969686 2.76155314 2.53035866 3.07907702 -1.203125 3.1953125 C-2.37488281 3.18371094 -3.54664063 3.17210937 -4.75390625 3.16015625 C-6.52314453 3.14662109 -6.52314453 3.14662109 -8.328125 3.1328125 C-9.23175781 3.12121094 -10.13539063 3.10960937 -11.06640625 3.09765625 C-11.06640625 2.76765625 -11.06640625 2.43765625 -11.06640625 2.09765625 C-9.015625 1.86979167 -6.96484375 1.64192708 -4.9140625 1.4140625 C-2.61783848 1.0208402 -2.39679667 0.11327016 0 0 Z " fill="#EFF4E1" transform="translate(579.06640625,183.90234375)"/>
<path d="M0 0 C1.98 0 3.96 0 6 0 C6 1.65 6 3.3 6 5 C5.01 5.495 5.01 5.495 4 6 C1.875 5.0625 1.875 5.0625 0 4 C0 2.68 0 1.36 0 0 Z " fill="#26394E" transform="translate(418,352)"/>
<path d="M0 0 C0 0.66 0 1.32 0 2 C0.99 2 1.98 2 3 2 C2.67 2.99 2.34 3.98 2 5 C2 4.34 2 3.68 2 3 C0.8553125 3.7425 0.8553125 3.7425 -0.3125 4.5 C-3 6 -3 6 -6 6 C-6 4.35 -6 2.7 -6 1 C-4 0 -4 0 0 0 Z " fill="#456E66" transform="translate(372,288)"/>
<path d="M0 0 C-0.33 0.66 -0.66 1.32 -1 2 C-2.79133978 2.05391993 -4.58313899 2.09275571 -6.375 2.125 C-7.37273437 2.14820313 -8.37046875 2.17140625 -9.3984375 2.1953125 C-12 2 -12 2 -14 0 C-9.02936879 -0.91297308 -4.97063121 -0.91297308 0 0 Z " fill="#2C373D" transform="translate(305,216)"/>
<path d="M0 0 C-3.0469629 1.69433918 -5.82821466 2.49467112 -9.25 3.125 C-10.58804687 3.37636719 -10.58804687 3.37636719 -11.953125 3.6328125 C-12.96632813 3.81457031 -12.96632813 3.81457031 -14 4 C-14.33 3.34 -14.66 2.68 -15 2 C-9.75614911 0.2520497 -5.52677733 -0.19392201 0 0 Z " fill="#456961" transform="translate(486,168)"/>
<path d="M0 0 C1.2065625 0.0309375 1.2065625 0.0309375 2.4375 0.0625 C2.4375 1.0525 2.4375 2.0425 2.4375 3.0625 C1.7775 3.0625 1.1175 3.0625 0.4375 3.0625 C-0.2225 4.3825 -0.8825 5.7025 -1.5625 7.0625 C-2.2225 7.0625 -2.8825 7.0625 -3.5625 7.0625 C-3.60504356 5.06295254 -3.60330783 3.06208364 -3.5625 1.0625 C-2.5625 0.0625 -2.5625 0.0625 0 0 Z " fill="#B0C9A3" transform="translate(530.5625,287.9375)"/>
<path d="M0 0 C2.64 0 5.28 0 8 0 C7.67 1.65 7.34 3.3 7 5 C6.67 4.34 6.34 3.68 6 3 C5.1028125 3.309375 5.1028125 3.309375 4.1875 3.625 C2 4 2 4 -1 2 C-0.67 1.34 -0.34 0.68 0 0 Z " fill="#71B097" transform="translate(69,288)"/>
<path d="M0 0 C1.65 0 3.3 0 5 0 C5 1.65 5 3.3 5 5 C4.34 4.34 3.68 3.68 3 3 C1.68 4.32 0.36 5.64 -1 7 C-1.66 6.67 -2.32 6.34 -3 6 C-2.01 4.02 -1.02 2.04 0 0 Z " fill="#407066" transform="translate(46,289)"/>
<path d="M0 0 C2.64 0 5.28 0 8 0 C8.33 2.31 8.66 4.62 9 7 C8.34 6.67 7.68 6.34 7 6 C7 4.35 7 2.7 7 1 C4.48916886 2.25541557 4.12874554 3.50063488 3 6 C2.01 4.02 1.02 2.04 0 0 Z " fill="#CADCAD" transform="translate(600,286)"/>
<path d="M0 0 C0.99 0.66 1.98 1.32 3 2 C3 2.66 3 3.32 3 4 C-1.95 4 -6.9 4 -12 4 C-12 3.67 -12 3.34 -12 3 C-8.7 3 -5.4 3 -2 3 C-2 2.34 -2 1.68 -2 1 C-1.34 0.67 -0.68 0.34 0 0 Z " fill="#5C8B7E" transform="translate(60,219)"/>
<path d="M0 0 C1.32 0 2.64 0 4 0 C4 1.98 4 3.96 4 6 C2.68 5.67 1.36 5.34 0 5 C-0.5625 3.0625 -0.5625 3.0625 -1 1 C-0.67 0.67 -0.34 0.34 0 0 Z " fill="#93C395" transform="translate(360,288)"/>
<path d="M0 0 C-1.25 2.5 -1.25 2.5 -3 5 C-4.32 5 -5.64 5 -7 5 C-6.67 3.35 -6.34 1.7 -6 0 C-2.25 -1.125 -2.25 -1.125 0 0 Z " fill="#8BBE9C" transform="translate(348,288)"/>
<path d="M0 0 C1.32 0 2.64 0 4 0 C4.33 1.98 4.66 3.96 5 6 C3.68 6.33 2.36 6.66 1 7 C0.67 4.69 0.34 2.38 0 0 Z " fill="#8DC7A0" transform="translate(308,288)"/>
<path d="M0 0 C4.75 0.75 4.75 0.75 7 3 C6.67 3.66 6.34 4.32 6 5 C2 5 2 5 -1 4 C-0.67 2.68 -0.34 1.36 0 0 Z " fill="#82B9A0" transform="translate(272,288)"/>
<path d="M0 0 C2.31 0.33 4.62 0.66 7 1 C5.8553125 1.8971875 5.8553125 1.8971875 4.6875 2.8125 C2.6516425 4.46959332 0.8021721 6.10297674 -1 8 C-0.67 5.36 -0.34 2.72 0 0 Z " fill="#6CAE96" transform="translate(180,204)"/>
<path d="M0 0 C2.31 0 4.62 0 7 0 C7.33 0.66 7.66 1.32 8 2 C7.01 2 6.02 2 5 2 C5 2.66 5 3.32 5 4 C3.68 4.33 2.36 4.66 1 5 C1 4.34 1 3.68 1 3 C0.34 3 -0.32 3 -1 3 C-0.67 2.01 -0.34 1.02 0 0 Z " fill="#233E49" transform="translate(307,72)"/>
<path d="M0 0 C-0.33 0.99 -0.66 1.98 -1 3 C-1.66 3 -2.32 3 -3 3 C-3.33 3.66 -3.66 4.32 -4 5 C-4.66 5 -5.32 5 -6 5 C-6.33 3.35 -6.66 1.7 -7 0 C-2.25 -1.125 -2.25 -1.125 0 0 Z " fill="#6DB095" transform="translate(63,288)"/>
<path d="M0 0 C1.65 0 3.3 0 5 0 C5 1.98 5 3.96 5 6 C3.0625 5.25 3.0625 5.25 1 4 C0.25 1.875 0.25 1.875 0 0 Z " fill="#7BBDAA" transform="translate(123,216)"/>
<path d="M0 0 C-0.99 1.32 -1.98 2.64 -3 4 C-4.9375 3.6875 -4.9375 3.6875 -7 3 C-7.33 2.01 -7.66 1.02 -8 0 C-5.13822943 -1.43088528 -3.06624227 -0.59991697 0 0 Z " fill="#71AF95" transform="translate(165,290)"/>
<path d="M0 0 C1.32 0 2.64 0 4 0 C4 2.31 4 4.62 4 7 C3.34 7 2.68 7 2 7 C0.5393715 4.35261084 0 3.10551666 0 0 Z " fill="#9BC599" transform="translate(410,288)"/>
<path d="M0 0 C1.8871875 0.061875 1.8871875 0.061875 3.8125 0.125 C2.8225 1.61 2.8225 1.61 1.8125 3.125 C-1.1575 2.795 -4.1275 2.465 -7.1875 2.125 C-4.09861478 0.06574319 -3.47814073 -0.1140374 0 0 Z " fill="#7EB79F" transform="translate(225.1875,199.875)"/>
<path d="M0 0 C2.86724686 0.57344937 3.8614515 0.8614515 6 3 C5.01 3 4.02 3 3 3 C3 4.32 3 5.64 3 7 C2.34 7 1.68 7 1 7 C0.67 4.69 0.34 2.38 0 0 Z " fill="#699C88" transform="translate(279,288)"/>
<path d="M0 0 C0.66 0 1.32 0 2 0 C2 1.98 2 3.96 2 6 C0.68 5.67 -0.64 5.34 -2 5 C-2 4.34 -2 3.68 -2 3 C-1.34 3 -0.68 3 0 3 C0 2.01 0 1.02 0 0 Z M-4 5 C-2 6 -2 6 -2 6 Z " fill="#305661" transform="translate(572,290)"/>
<path d="M0 0 C0.66 0 1.32 0 2 0 C2.33 1.98 2.66 3.96 3 6 C1.68 6.33 0.36 6.66 -1 7 C-1.04254356 5.00045254 -1.04080783 2.99958364 -1 1 C-0.67 0.67 -0.34 0.34 0 0 Z " fill="#476B66" transform="translate(423,287)"/>
<path d="M0 0 C1.32 0 2.64 0 4 0 C3.67 1.98 3.34 3.96 3 6 C2.01 5.67 1.02 5.34 0 5 C0 3.35 0 1.7 0 0 Z " fill="#89BE9A" transform="translate(348,288)"/>
<path d="M0 0 C3.3 0.33 6.6 0.66 10 1 C8 3 8 3 5 3.3125 C4.01 3.209375 3.02 3.10625 2 3 C1.34 2.01 0.68 1.02 0 0 Z " fill="#6FAC94" transform="translate(246,203)"/>
<path d="M0 0 C0 0.99 0 1.98 0 3 C-1.98 3.33 -3.96 3.66 -6 4 C-6 3.01 -6 2.02 -6 1 C-3 0 -3 0 0 0 Z " fill="#3F5F5F" transform="translate(622,176)"/>
<path d="M0 0 C0.33 0 0.66 0 1 0 C1 2.31 1 4.62 1 7 C0.01 7 -0.98 7 -2 7 C-2.33 5.35 -2.66 3.7 -3 2 C-2.34 2 -1.68 2 -1 2 C-0.67 1.34 -0.34 0.68 0 0 Z " fill="#6EB097" transform="translate(85,288)"/>
<path d="M0 0 C1.875 0.3125 1.875 0.3125 4 1 C4.66 1.99 5.32 2.98 6 4 C4.35 4 2.7 4 1 4 C0.67 2.68 0.34 1.36 0 0 Z " fill="#4E8E83" transform="translate(120,218)"/>
<path d="M0 0 C-0.33 0.66 -0.66 1.32 -1 2 C-3.875 2.125 -3.875 2.125 -7 2 C-7.66 1.34 -8.32 0.68 -9 0 C-5.52176885 -1.15941038 -3.54104422 -0.70820884 0 0 Z " fill="#20393F" transform="translate(373,205)"/>
<path d="M0 0 C2.31 0 4.62 0 7 0 C7 0.99 7 1.98 7 3 C4.0625 2.625 4.0625 2.625 1 2 C0.67 1.34 0.34 0.68 0 0 Z " fill="#EBF7D4" transform="translate(243,200)"/>
<path d="M0 0 C0 0.66 0 1.32 0 2 C1.98 2 3.96 2 6 2 C6 2.33 6 2.66 6 3 C1.48382401 3.07654536 -2.59085217 3.10228696 -7 2 C-7 1.67 -7 1.34 -7 1 C-2.25 0 -2.25 0 0 0 Z " fill="#C6CEC0" transform="translate(562,184)"/>
<path d="M0 0 C0.66 0.99 1.32 1.98 2 3 C1.25 6.625 1.25 6.625 0 10 C-0.99 10.495 -0.99 10.495 -2 11 C-1 3.57142857 -1 3.57142857 0 0 Z " fill="#B5D8AD" transform="translate(66,142)"/>
</svg>
