<?xml version="1.0" encoding="UTF-8"?>
<svg version="1.1" xmlns="http://www.w3.org/2000/svg" width="79" height="56">
<path d="M0 0 C26.07 0 52.14 0 79 0 C79 18.48 79 36.96 79 56 C52.93 56 26.86 56 0 56 C0 37.52 0 19.04 0 0 Z " fill="#F7F9FC" transform="translate(0,0)"/>
<path d="M0 0 C26.07 0 52.14 0 79 0 C79 18.48 79 36.96 79 56 C52.93 56 26.86 56 0 56 C0 37.52 0 19.04 0 0 Z M11 8 C10.71404555 10.56383947 10.60301854 12.87969305 10.63671875 15.44140625 C10.63622025 16.16488754 10.63572174 16.88836884 10.63520813 17.6337738 C10.63754611 19.16106925 10.64725847 20.68836872 10.66381836 22.21557617 C10.68744932 24.55747773 10.68437309 26.8982436 10.67773438 29.24023438 C10.68331001 30.72396514 10.69041918 32.2076911 10.69921875 33.69140625 C10.69830734 34.39350723 10.69739594 35.09560822 10.69645691 35.81898499 C10.6472671 39.85787332 10.6472671 39.85787332 13 43 C9.535 43.495 9.535 43.495 6 44 C6.34786708 45.97536745 6.34786708 45.97536745 7 48 C9.60224264 49.30112132 11.51371726 49.13417958 14.42773438 49.14526367 C16.129599 49.15483345 16.129599 49.15483345 17.86584473 49.16459656 C19.09605347 49.16570938 20.32626221 49.1668222 21.59375 49.16796875 C22.85135132 49.17129715 24.10895264 49.17462555 25.40466309 49.17805481 C28.06782564 49.18312512 30.73088617 49.18589475 33.39404297 49.18530273 C36.81069086 49.185201 40.22713146 49.19886531 43.64373016 49.21607494 C46.89789583 49.22984805 50.15205911 49.22928305 53.40625 49.23046875 C54.63645874 49.23765427 55.86666748 49.24483978 57.13415527 49.25224304 C58.26873169 49.24916641 59.40330811 49.24608978 60.57226562 49.24291992 C61.57439087 49.24434494 62.57651611 49.24576996 63.60900879 49.24723816 C66.18562086 49.23479686 66.18562086 49.23479686 68 47 C68 46.01 68 45.02 68 44 C65.03 43.505 65.03 43.505 62 43 C62.495 42.01 62.495 42.01 63 41 C63.11082136 38.46992034 63.16409561 35.96818388 63.16796875 33.4375 C63.17129715 32.69040771 63.17462555 31.94331543 63.17805481 31.17358398 C63.18311966 29.59326799 63.18546327 28.01294129 63.18530273 26.43261719 C63.18749134 24.00958757 63.20565701 21.58701164 63.22460938 19.1640625 C63.22754292 17.6302099 63.22952798 16.09635512 63.23046875 14.5625 C63.23765427 13.83538818 63.24483978 13.10827637 63.25224304 12.35913086 C63.36469842 8.22526969 63.36469842 8.22526969 61 5 C58.92086768 4.68768896 58.92086768 4.68768896 56.50610352 4.7253418 C55.57496231 4.71580978 54.64382111 4.70627777 53.6844635 4.69645691 C52.67612961 4.69736832 51.66779572 4.69827972 50.62890625 4.69921875 C49.59563705 4.69493362 48.56236786 4.6906485 47.49778748 4.68623352 C45.30964898 4.68048317 43.12149137 4.67999512 40.93334961 4.68432617 C37.57958441 4.68748391 34.22670276 4.6640429 30.87304688 4.63867188 C28.75000112 4.6363988 26.62695298 4.63569543 24.50390625 4.63671875 C23.49759659 4.627509 22.49128693 4.61829926 21.45448303 4.60881042 C20.05304298 4.61815361 20.05304298 4.61815361 18.62329102 4.62768555 C17.80103531 4.62705612 16.9787796 4.6264267 16.13160706 4.6257782 C13.46778359 5.09343513 12.58589055 5.8345846 11 8 Z " fill="#FCFCFD" transform="translate(0,0)"/>
<path d="M0 0 C1.40144005 -0.00934319 1.40144005 -0.00934319 2.83119202 -0.01887512 C3.83750168 -0.00966537 4.84381134 -0.00045563 5.88061523 0.0090332 C6.91484116 0.0085347 7.94906708 0.00803619 9.01463318 0.00752258 C11.20101849 0.00986348 13.38740647 0.01959287 15.57373047 0.03613281 C18.92952425 0.05974631 22.28452502 0.05669116 25.64038086 0.05004883 C27.76213041 0.05562471 29.8838766 0.06273403 32.00561523 0.0715332 C33.01394913 0.0706218 34.02228302 0.06971039 35.06117249 0.06877136 C35.99231369 0.07830338 36.9234549 0.08783539 37.8828125 0.09765625 C38.70427261 0.10226364 39.52573273 0.10687103 40.37208557 0.11161804 C42.37670898 0.37231445 42.37670898 0.37231445 44.37670898 2.37231445 C44.56405705 4.93003925 44.63245042 7.37743856 44.60717773 9.93481445 C44.60671951 10.68190674 44.60626129 11.42899902 44.60578918 12.19873047 C44.60276674 13.77906888 44.59488062 15.35940431 44.58251953 16.93969727 C44.56428169 19.36265585 44.56200972 21.78523195 44.56225586 24.20825195 C44.55733991 25.74210943 44.55151125 27.27596432 44.54467773 28.80981445 C44.54356491 29.53692627 44.54245209 30.26403809 44.54130554 31.01318359 C44.49278241 36.1401676 44.49278241 36.1401676 43.37670898 38.37231445 C46.34670898 38.86731445 46.34670898 38.86731445 49.37670898 39.37231445 C48.50170898 43.24731445 48.50170898 43.24731445 47.37670898 44.37231445 C45.61316898 44.48171113 43.84525788 44.52139896 42.07836914 44.53344727 C40.38123276 44.54785858 40.38123276 44.54785858 38.64981079 44.56256104 C36.80146133 44.56893585 36.80146133 44.56893585 34.91577148 44.57543945 C33.0308046 44.58398956 33.0308046 44.58398956 31.10775757 44.5927124 C28.44281385 44.60218022 25.77798325 44.60906779 23.11303711 44.61254883 C19.69749081 44.61803173 16.28234355 44.64205112 12.86692238 44.67052078 C9.61240212 44.69362262 6.35786228 44.6955955 3.10327148 44.70043945 C1.87508698 44.71278625 0.64690247 44.72513306 -0.61849976 44.737854 C-1.75622833 44.73485291 -2.89395691 44.73185181 -4.06616211 44.72875977 C-5.06908295 44.7324054 -6.07200378 44.73605103 -7.10531616 44.73980713 C-9.62329102 44.37231445 -9.62329102 44.37231445 -11.47061157 42.97503662 C-12.62329102 41.37231445 -12.62329102 41.37231445 -12.62329102 39.37231445 C-9.15829102 38.87731445 -9.15829102 38.87731445 -5.62329102 38.37231445 C-6.28329102 37.71231445 -6.94329102 37.05231445 -7.62329102 36.37231445 C-7.83504821 33.89842571 -7.92728573 31.53920321 -7.92407227 29.0637207 C-7.92835739 28.34119614 -7.93264252 27.61867157 -7.9370575 26.87425232 C-7.94280339 25.34521534 -7.94329914 23.81615101 -7.93896484 22.28710938 C-7.93580772 19.94719772 -7.9592486 17.60855378 -7.98461914 15.26879883 C-7.98689241 13.78377438 -7.9875955 12.29874653 -7.98657227 10.8137207 C-7.99578201 10.11364395 -8.00499176 9.4135672 -8.01448059 8.692276 C-7.96829937 3.84339767 -7.96829937 3.84339767 -6.38897705 1.68695068 C-4.11890169 -0.0032271 -2.81447238 -0.00215444 0 0 Z M-2.62329102 5.37231445 C-2.62329102 14.94231445 -2.62329102 24.51231445 -2.62329102 34.37231445 C11.23670898 34.37231445 25.09670898 34.37231445 39.37670898 34.37231445 C39.37670898 24.80231445 39.37670898 15.23231445 39.37670898 5.37231445 C25.51670898 5.37231445 11.65670898 5.37231445 -2.62329102 5.37231445 Z " fill="#1146A1" transform="translate(18.623291015625,4.627685546875)"/>
<path d="M0 0 C3.7952131 1.49097658 5.61042731 3.75700849 8 7 C6.55746343 10.36591866 4.66735273 12.51047079 2 15 C1.01 14.67 0.02 14.34 -1 14 C0.65 11.69 2.3 9.38 4 7 C2.35 5.02 0.7 3.04 -1 1 C-0.67 0.67 -0.34 0.34 0 0 Z " fill="#2556A9" transform="translate(41,17)"/>
<path d="M0 0 C0.66 0.66 1.32 1.32 2 2 C1.319375 2.5775 0.63875 3.155 -0.0625 3.75 C-2.23307115 5.75808047 -2.23307115 5.75808047 -1.9375 8 C-0.87829148 10.25964485 0.41857514 12.07478713 2 14 C-2 14 -2 14 -4.75 11.5 C-5.4925 10.675 -6.235 9.85 -7 9 C-5.44499019 5.18315774 -2.96404505 2.80804268 0 0 Z " fill="#2959AA" transform="translate(31,17)"/>
<path d="M0 0 C1.98 0.495 1.98 0.495 4 1 C3.67 2.32 3.34 3.64 3 5 C1.68 5 0.36 5 -1 5 C-0.67 3.35 -0.34 1.7 0 0 Z " fill="#DFE6F2" transform="translate(36,41)"/>
<path d="M0 0 C0.66 0.66 1.32 1.32 2 2 C-0.64 4.31 -3.28 6.62 -6 9 C-6 6 -6 6 -4.6875 4.39453125 C-4.130625 3.87246094 -3.57375 3.35039062 -3 2.8125 C-2.443125 2.28269531 -1.88625 1.75289062 -1.3125 1.20703125 C-0.6628125 0.60955078 -0.6628125 0.60955078 0 0 Z " fill="#164AA3" transform="translate(31,17)"/>
</svg>
